<svg width="348" height="167" viewBox="0 0 348 167" fill="none" xmlns="http://www.w3.org/2000/svg">
<path d="M38.9828 0.340827H56.4137V31.153H38.9828V0.340827ZM46.0256 7.3836H84.7609V19.7085H46.0256V7.3836ZM34.2289 25.1666H72.0839V37.4915H24.193L34.2289 25.1666ZM68.0343 25.1666H71.2036L74.1967 24.4624L85.2891 30.2727C80.8287 38.8414 74.725 46.2363 66.9779 52.4574C59.3482 58.5612 50.7795 63.6672 41.2717 67.7755C31.764 71.8838 21.9628 75.1704 11.8681 77.6354C10.8117 75.6399 9.40312 73.351 7.64243 70.7687C5.99911 68.1863 4.35579 66.1322 2.71248 64.6062C9.5205 63.1977 16.2111 61.3783 22.7844 59.1481C29.4751 56.9179 35.7549 54.2768 41.6239 51.2249C47.4929 48.0557 52.7163 44.4756 57.2941 40.4847C61.8719 36.4938 65.452 32.2094 68.0343 27.6316V25.1666ZM17.1502 46.1189L27.3622 37.6676C31.1184 39.1935 35.168 41.1303 39.511 43.4779C43.8541 45.7081 47.2581 47.8796 49.7231 49.9925L39.1589 59.1481C37.5156 57.8569 35.4614 56.4483 32.9965 54.9224C30.5315 53.2791 27.8904 51.6945 25.0733 50.1685C22.3736 48.6426 19.7325 47.2927 17.1502 46.1189ZM28.2426 21.6452L43.2085 26.047C39.4523 31.0943 34.6985 35.9069 28.9469 40.4847C23.3126 45.0625 17.7371 48.8774 12.2202 51.9292C10.9291 50.5207 8.99229 48.76 6.40994 46.6471C3.94497 44.5343 1.89082 42.891 0.247503 41.7172C5.76435 39.2522 11.0464 36.259 16.0938 32.7376C21.1411 29.2162 25.1907 25.5188 28.2426 21.6452ZM90.3951 6.50326H144.625V20.7649H90.3951V6.50326ZM140.223 6.50326H143.568L146.737 5.97506L158.358 10.7289C155.071 19.8846 150.494 27.9837 144.625 35.0265C138.756 41.9519 132.006 47.8796 124.377 52.8096C116.864 57.6221 108.765 61.4957 100.079 64.4302C99.0226 62.3173 97.4966 59.8524 95.5012 57.0352C93.5057 54.1007 91.6276 51.7532 89.8669 49.9925C97.3792 47.7622 104.481 44.7104 111.171 40.8368C117.862 36.8459 123.731 32.2094 128.778 26.9273C133.943 21.5279 137.758 15.6002 140.223 9.14431V6.50326ZM88.6344 34.3223L100.431 23.0538C107.474 25.9883 114.928 29.5097 122.792 33.618C130.656 37.6089 138.11 41.7759 145.153 46.1189C152.196 50.462 158.006 54.5703 162.584 58.4438L149.731 71.473C145.505 67.7168 139.988 63.6085 133.18 59.1481C126.372 54.6876 119.036 50.2859 111.171 45.9429C103.424 41.4824 95.912 37.6089 88.6344 34.3223ZM84.5849 67.4234C79.3028 71.8838 72.7295 76.2855 64.8651 80.6286C57.0006 84.8542 48.4906 88.7865 39.335 92.4252C30.1793 96.064 20.9063 99.1159 11.516 101.581C10.5769 99.5854 9.28574 97.1791 7.64243 94.362C5.99911 91.4275 4.41448 89.0212 2.88855 87.1431C12.5137 84.9129 21.9041 82.1545 31.0597 78.8679C40.3327 75.4639 48.784 71.649 56.4137 67.4234C64.0434 63.1977 70.3819 58.7373 75.4292 54.0421H92.3319C99.1399 59.4415 106.711 64.1954 115.045 68.3037C123.379 72.412 132.124 75.8747 141.279 78.6918C150.435 81.5089 159.473 83.7391 168.394 85.3825C166.516 87.3779 164.697 89.8429 162.936 92.7774C161.293 95.7119 159.825 98.3529 158.534 100.701C152.313 99.2919 145.857 97.4726 139.166 95.2423C132.476 92.8948 125.785 90.2537 119.094 87.3192C112.404 84.3847 106.065 81.2742 100.079 77.9875C94.21 74.5835 89.0453 71.0621 84.5849 67.4234ZM47.082 91.897H135.997V133.978H47.082V123.061H115.925V102.989H47.082V91.897ZM36.3418 92.2492H56.4137V153.345L36.3418 154.754V92.2492ZM139.695 122.709L154.308 131.865C148.909 135.738 143.275 139.553 137.406 143.309C131.654 146.948 126.372 150 121.559 152.465L110.819 144.718C113.988 142.84 117.334 140.668 120.855 138.203C124.377 135.621 127.781 132.98 131.067 130.28C134.471 127.463 137.347 124.939 139.695 122.709ZM89.6909 127.815C93.9165 132.745 99.6681 136.853 106.946 140.14C114.223 143.309 122.733 145.774 132.476 147.535C142.336 149.296 153.076 150.47 164.697 151.056C162.818 152.817 160.94 155.165 159.062 158.099C157.184 161.151 155.717 163.851 154.661 166.198C142.336 165.025 131.067 163.088 120.855 160.388C110.643 157.806 101.664 154.167 93.9165 149.472C86.1695 144.777 79.7136 138.908 74.5489 131.865L89.6909 127.815ZM47.082 108.095H121.912V117.427H47.082V108.095ZM61.5197 76.755H107.65V87.6714H61.5197V76.755ZM15.7416 147.887C22.3149 147.3 29.7685 146.713 38.1025 146.126C46.5538 145.54 55.416 144.835 64.689 144.014C74.0794 143.192 83.4697 142.37 92.8601 141.549L93.0362 156.691C84.1153 157.63 75.1358 158.51 66.0975 159.332C57.1767 160.153 48.608 160.916 40.3914 161.621C32.1748 162.442 24.6625 163.147 17.8545 163.733L15.7416 147.887ZM273.508 25.1666H326.681V44.1822H273.508V25.1666ZM267.345 0.692961L288.473 3.68615C287.182 13.4287 285.422 22.9951 283.191 32.3855C280.961 41.6585 278.32 50.2859 275.268 58.2677C272.216 66.1322 268.636 73.0576 264.528 79.0439C263.354 77.8701 261.652 76.5203 259.422 74.9943C257.192 73.351 254.962 71.7664 252.731 70.2405C250.501 68.7145 248.564 67.5407 246.921 66.7191C250.677 61.5544 253.905 55.5093 256.605 48.5839C259.305 41.5411 261.535 33.9701 263.296 25.8709C265.056 17.6543 266.406 9.26168 267.345 0.692961ZM321.927 25.1666H325.096L328.441 24.4624L343.407 28.3359C341.881 36.9046 339.944 45.5907 337.597 54.3942C335.249 63.1977 332.843 70.7687 330.378 77.1072L312.771 71.2969C313.945 67.5407 315.119 63.2564 316.292 58.4438C317.466 53.6312 318.523 48.6426 319.462 43.4779C320.518 38.1958 321.34 33.2072 321.927 28.512V25.1666ZM301.15 71.8251C303.146 83.6804 305.963 94.7141 309.602 104.926C313.358 115.021 318.347 123.824 324.568 131.337C330.789 138.849 338.536 144.718 347.809 148.944C346.4 150.235 344.816 151.878 343.055 153.874C341.294 155.986 339.651 158.158 338.125 160.388C336.599 162.618 335.367 164.672 334.428 166.551C324.333 161.151 315.94 154.05 309.25 145.246C302.676 136.325 297.394 125.937 293.403 114.082C289.53 102.109 286.361 88.9038 283.896 74.4661L301.15 71.8251ZM283.191 57.5634H303.439V67.0712C303.439 72.4707 303.146 78.457 302.559 85.0303C301.972 91.4862 300.74 98.2942 298.862 105.454C296.983 112.497 294.166 119.599 290.41 126.759C286.771 133.919 281.842 140.903 275.62 147.711C269.517 154.519 261.828 160.799 252.555 166.551C251.499 164.907 250.09 163.147 248.33 161.268C246.569 159.508 244.691 157.747 242.695 155.986C240.7 154.226 238.881 152.817 237.237 151.761C247.801 145.422 256.135 138.555 262.239 131.161C268.46 123.648 273.038 116.019 275.973 108.271C279.024 100.524 280.961 93.0708 281.783 85.9107C282.722 78.7505 283.191 72.2946 283.191 66.543V57.5634ZM200.439 25.1666H238.646V44.5343H200.439V25.1666ZM196.741 0.692961L216.461 4.39043C214.818 13.8982 212.764 23.2886 210.299 32.5616C207.951 41.8346 205.193 50.5794 202.023 58.7959C198.854 67.0125 195.333 74.2314 191.459 80.4525C190.403 79.2787 188.935 77.8115 187.057 76.0508C185.179 74.2901 183.243 72.5294 181.247 70.7687C179.252 69.008 177.55 67.6581 176.141 66.7191C179.545 61.437 182.538 55.2745 185.121 48.2318C187.82 41.0716 190.109 33.4419 191.987 25.3427C193.983 17.1261 195.567 8.90954 196.741 0.692961ZM234.068 25.1666H237.237L240.23 24.4624L254.492 28.3359C252.497 35.1439 250.149 42.128 247.449 49.2882C244.867 56.331 242.343 62.376 239.878 67.4234L223.504 62.1413C225.382 57.7982 227.319 52.4574 229.314 46.1189C231.427 39.663 233.012 33.618 234.068 27.9838V25.1666ZM202.199 164.79L198.15 146.303L203.256 139.788L242.519 114.962C243.106 117.662 243.869 120.772 244.808 124.294C245.865 127.815 246.862 130.632 247.801 132.745C238.763 138.732 231.427 143.603 225.793 147.359C220.158 150.998 215.757 153.932 212.587 156.162C209.536 158.393 207.247 160.153 205.721 161.445C204.195 162.736 203.021 163.851 202.199 164.79ZM202.199 164.79C201.612 163.147 200.732 161.21 199.558 158.98C198.502 156.749 197.269 154.578 195.861 152.465C194.57 150.352 193.337 148.65 192.163 147.359C193.572 146.42 195.039 145.187 196.565 143.661C198.208 142.018 199.617 140.081 200.791 137.851C201.965 135.504 202.551 132.98 202.551 130.28V64.4302H222.623V144.894C222.623 144.894 221.919 145.364 220.511 146.303C219.102 147.124 217.4 148.298 215.405 149.824C213.409 151.35 211.355 152.993 209.242 154.754C207.247 156.515 205.545 158.275 204.136 160.036C202.845 161.797 202.199 163.381 202.199 164.79Z" fill="#FDF5E6"/>
</svg>
