<svg width="29" height="28" viewBox="0 0 29 28" fill="none" xmlns="http://www.w3.org/2000/svg">
<path d="M8.37652 27.5822C7.7542 27.5822 7.11774 27.3417 6.63685 26.8608C5.63265 25.8566 5.63265 24.315 6.56613 23.3673L19.9743 9.95916C19.9743 9.95916 20.0168 9.90259 20.045 9.88844C20.0733 9.86016 20.1016 9.83187 20.1299 9.81773L23.9063 6.04137C24.3447 5.58877 24.9529 5.33419 25.6035 5.33419C26.2541 5.33419 26.8764 5.58877 27.3432 6.05551L28.2766 6.989C28.7575 7.45574 29.0263 8.12049 28.998 8.78524C28.9838 9.44999 28.6868 10.0723 28.2059 10.5108L9.9889 26.9598C9.52216 27.37 8.95641 27.5822 8.37652 27.5822ZM20.7946 12.1373L8.06536 24.8666C8.00933 24.9267 7.97938 25.0066 7.98202 25.0887C7.98467 25.1709 8.01972 25.2486 8.07951 25.305C8.24923 25.4748 8.44724 25.4889 8.56039 25.3757L21.9544 13.2829L20.7946 12.1231V12.1373ZM22.2939 10.6381L23.5244 11.8686L26.7774 8.92668C26.8481 8.85596 26.8764 8.7711 26.8764 8.71452C26.8764 8.65795 26.8764 8.55894 26.7774 8.47408L25.8439 7.5406C25.7845 7.47913 25.7032 7.44356 25.6176 7.44159C25.6176 7.46988 25.4903 7.44159 25.4196 7.51231L22.308 10.6239L22.2939 10.6381ZM2.50691 23.141C1.88458 23.141 1.26226 22.9006 0.767236 22.4197C-0.208676 21.4438 -0.251107 19.9587 0.625799 19.0111L17.0749 0.794075C17.5275 0.299047 18.1356 0.0161734 18.8004 0.00202978C19.451 -0.0262575 20.1299 0.242472 20.5966 0.723356L21.516 1.65684C21.7452 1.88196 21.9273 2.15049 22.0515 2.44676C22.1758 2.74303 22.2398 3.06108 22.2398 3.38236C22.2398 3.70364 22.1758 4.0217 22.0515 4.31797C21.9273 4.61423 21.7452 4.88277 21.516 5.10789L17.7255 8.89839C17.7255 8.89839 17.6972 8.92668 17.683 8.95496C17.6689 8.98325 17.6548 8.98325 17.6265 8.99739L4.20414 22.4339C3.72326 22.9006 3.11508 23.141 2.49276 23.141H2.50691ZM14.2886 7.04557L2.19575 20.4396C2.0826 20.5669 2.09674 20.7508 2.20989 20.8781C2.37961 21.0478 2.57762 21.0619 2.70492 20.9346L15.4342 8.20535L14.2886 7.05971V7.04557ZM15.7171 5.46148L16.9476 6.69198L20.045 3.59452C20.1011 3.53438 20.131 3.45452 20.1284 3.37237C20.1257 3.29023 20.0907 3.21246 20.0309 3.15606L19.1116 2.22258C19.08 2.19109 19.0424 2.16613 19.0012 2.14914C18.9599 2.13216 18.9157 2.12347 18.8711 2.12358C18.8145 2.12358 18.7297 2.13772 18.659 2.22258L15.7312 5.47562L15.7171 5.46148Z" fill="white"/>
</svg>
