<svg width="35" height="36" viewBox="0 0 35 36" fill="none" xmlns="http://www.w3.org/2000/svg">
<path d="M2.02007 21.1617C3.03771 28.2844 9.38657 33.9999 17.066 33.9999C24.7453 33.9999 31.0942 28.2844 32.1118 21.1617C32.2743 20.0241 31.4002 19.0778 30.252 19.0232C28.1924 18.926 24.2396 18.8113 17.066 18.8113C9.89235 18.8113 5.94026 18.926 3.87992 19.0239C2.73242 19.0771 1.85755 20.0241 2.01931 21.1617H2.02007Z" stroke="white" stroke-width="2.2783" stroke-linecap="round" stroke-linejoin="round"/>
<path d="M27.7902 22.6085C26.8586 25.1672 25.0581 27.3175 22.7027 28.684" stroke="white" stroke-width="2.2783" stroke-linecap="round" stroke-linejoin="round"/>
<path d="M9.34134 14.5467C8.81581 14.0212 9.01174 13.1843 9.47196 12.6003C10.9088 10.7776 14.267 6.60912 17.7012 2.99954C18.5198 2.1391 19.7418 1.62496 20.6949 2.33352C21.0218 2.57661 21.3114 2.86624 21.5545 3.19319C22.2623 4.14704 21.749 5.36897 20.8885 6.18764C17.2789 9.62179 13.1104 12.98 11.2878 14.4168C10.7038 14.8771 9.86763 15.073 9.34134 14.5467ZM18.2662 14.9674C17.8941 14.3234 18.2996 13.5655 18.8958 13.1213C20.7556 11.7315 25.0775 8.57529 29.3296 5.97651C30.3427 5.35758 31.6557 5.17835 32.3932 6.10865C32.646 6.42825 32.8507 6.78312 33.0007 7.16199C33.4381 8.2662 32.6263 9.31346 31.5828 9.88076C27.207 12.2646 22.3124 14.4298 20.18 15.3456C19.4965 15.6388 18.6383 15.6114 18.2662 14.9674Z" stroke="white" stroke-width="2.2783" stroke-linecap="round" stroke-linejoin="round"/>
</svg>
