<svg width="255" height="41" viewBox="0 0 255 41" fill="none" xmlns="http://www.w3.org/2000/svg">
<path d="M14.16 29.56C12.24 29.56 10.4267 29.2533 8.72 28.64C7.04 28 5.54667 27.0933 4.24 25.92C2.96 24.7467 1.96 23.36 1.24 21.76C0.52 20.16 0.16 18.3867 0.16 16.44C0.16 14.6 0.506667 12.84 1.2 11.16C1.92 9.48 2.93333 7.98667 4.24 6.68C5.57333 5.37333 7.17333 4.34666 9.04 3.6C10.9067 2.82667 12.9733 2.44 15.24 2.44C15.8 2.44 16.44 2.48 17.16 2.56C17.9067 2.64 18.6667 2.74666 19.44 2.88C20.2133 3.01333 20.9333 3.17333 21.6 3.36C22.2933 3.52 22.8533 3.69333 23.28 3.88C23.52 3.96 23.7067 4.08 23.84 4.24C23.9733 4.37333 24.0533 4.57333 24.08 4.84C24.2133 5.77333 24.32 6.65333 24.4 7.48C24.5067 8.30667 24.56 9 24.56 9.56C24.56 9.82667 24.4933 10.0267 24.36 10.16C24.2533 10.2933 24.0933 10.36 23.88 10.36C23.56 10.36 23.32 10.28 23.16 10.12C23.0267 9.96 22.9067 9.76 22.8 9.52C22.56 9.01333 22.28 8.49333 21.96 7.96C21.6667 7.4 21.3067 6.89333 20.88 6.44C20.56 6.12 20.1733 5.81333 19.72 5.52C19.2933 5.22667 18.76 4.98667 18.12 4.8C17.48 4.61333 16.7067 4.52 15.8 4.52C14.36 4.52 13.08 4.81333 11.96 5.4C10.84 5.98667 9.89333 6.8 9.12 7.84C8.37333 8.85333 7.8 10.0133 7.4 11.32C7.02667 12.6 6.84 13.96 6.84 15.4C6.84 17.1867 7.01333 18.8267 7.36 20.32C7.70667 21.7867 8.21333 23.0533 8.88 24.12C9.54667 25.1867 10.3733 26.0133 11.36 26.6C12.3467 27.16 13.4933 27.44 14.8 27.44C15.4933 27.44 16.0533 27.32 16.48 27.08C16.9333 26.84 17.2933 26.6267 17.56 26.44C17.8267 26.2267 18.04 25.8933 18.2 25.44C18.3867 24.96 18.48 24.4267 18.48 23.84C18.5067 23.6 18.52 23.2667 18.52 22.84C18.52 22.4133 18.52 21.9867 18.52 21.56C18.5467 21.1333 18.56 20.8 18.56 20.56C18.56 20.2667 18.4933 20 18.36 19.76C18.2533 19.4933 18.0267 19.2933 17.68 19.16C17.44 19 17.16 18.8667 16.84 18.76C16.5467 18.6533 16.24 18.5733 15.92 18.52C15.6267 18.44 15.36 18.3733 15.12 18.32C14.9067 18.2933 14.6933 18.2 14.48 18.04C14.2667 17.88 14.16 17.68 14.16 17.44C14.16 17.2533 14.2533 17.1067 14.44 17C14.6267 16.8933 14.8133 16.84 15 16.84C15.6133 16.84 16.28 16.8533 17 16.88C17.7467 16.9067 18.48 16.9467 19.2 17C19.92 17.0267 20.56 17.04 21.12 17.04C21.8933 17.04 22.7067 17.0133 23.56 16.96C24.44 16.9067 25.28 16.88 26.08 16.88C26.2667 16.88 26.4267 16.9333 26.56 17.04C26.6933 17.12 26.76 17.2667 26.76 17.48C26.76 17.7467 26.68 17.9467 26.52 18.08C26.3867 18.1867 26.2 18.2667 25.96 18.32C25.2133 18.5067 24.7067 18.7467 24.44 19.04C24.1733 19.3333 23.9867 19.7467 23.88 20.28C23.7733 20.8667 23.6933 21.3867 23.64 21.84C23.6133 22.2667 23.6 22.7467 23.6 23.28V24.56C23.6 24.6933 23.6533 24.8267 23.76 24.96C23.8667 25.0933 23.9867 25.2267 24.12 25.36C24.2267 25.4933 24.32 25.6267 24.4 25.76C24.48 25.8933 24.52 26.04 24.52 26.2C24.52 26.36 24.4667 26.5333 24.36 26.72C24.2533 26.88 24.0533 26.9867 23.76 27.04C23.5467 27.0667 23.1733 27.2133 22.64 27.48C22.1067 27.72 21.44 28.0133 20.64 28.36C19.84 28.68 18.8933 28.96 17.8 29.2C16.7067 29.44 15.4933 29.56 14.16 29.56ZM37.23 29.56C35.63 29.56 34.19 29.2 32.91 28.48C31.63 27.76 30.6033 26.7733 29.83 25.52C29.0833 24.24 28.71 22.8 28.71 21.2C28.71 19.92 28.95 18.7067 29.43 17.56C29.91 16.4133 30.5767 15.4 31.43 14.52C32.2833 13.64 33.2833 12.9467 34.43 12.44C35.5767 11.9333 36.8033 11.68 38.11 11.68C39.7633 11.68 41.2567 12.0667 42.59 12.84C43.9233 13.6133 44.9767 14.64 45.75 15.92C46.55 17.1733 46.95 18.5467 46.95 20.04C46.95 21.7467 46.5767 23.3333 45.83 24.8C45.11 26.24 44.03 27.4 42.59 28.28C41.1767 29.1333 39.39 29.56 37.23 29.56ZM38.03 27.8C38.59 27.8 39.07 27.6933 39.47 27.48C39.8967 27.24 40.2433 26.8933 40.51 26.44C40.83 25.9067 41.0433 25.1867 41.15 24.28C41.2833 23.3467 41.35 22.2533 41.35 21C41.35 19.56 41.19 18.28 40.87 17.16C40.55 16.0133 40.0967 15.1067 39.51 14.44C38.95 13.7733 38.2833 13.44 37.51 13.44C37.0833 13.44 36.6967 13.52 36.35 13.68C36.0033 13.8133 35.6967 14.0133 35.43 14.28C34.9767 14.8133 34.6567 15.5733 34.47 16.56C34.31 17.5467 34.23 18.76 34.23 20.2C34.23 21.48 34.39 22.7067 34.71 23.88C35.0567 25.0267 35.51 25.9733 36.07 26.72C36.6567 27.44 37.31 27.8 38.03 27.8ZM48.7213 29.12C48.4813 29.12 48.2813 29.08 48.1213 29C47.9879 28.8933 47.9213 28.7467 47.9213 28.56C47.9213 28.3467 48.0013 28.1867 48.1613 28.08C48.3213 27.9467 48.5479 27.84 48.8413 27.76C49.2413 27.6267 49.5879 27.48 49.8813 27.32C50.2013 27.16 50.3613 26.8 50.3613 26.24V7C50.3613 6.28 50.2546 5.65333 50.0413 5.12C49.8546 4.58667 49.4279 4.25333 48.7613 4.12C48.4946 4.06667 48.3613 3.86667 48.3613 3.52C48.3613 3.17333 48.4813 2.97333 48.7213 2.92C49.4146 2.78667 50.1613 2.6 50.9613 2.36C51.7613 2.09333 52.5213 1.82666 53.2413 1.56C53.9613 1.26667 54.5213 1.05333 54.9213 0.919999C55.1346 0.839999 55.3079 0.799998 55.4413 0.799998C55.6013 0.799998 55.7079 0.853332 55.7613 0.959999C55.8146 1.04 55.8413 1.14667 55.8413 1.28C55.8413 1.46667 55.8013 1.81333 55.7213 2.32C55.6679 2.82667 55.6279 3.4 55.6013 4.04V26.16C55.6013 26.7467 55.7479 27.12 56.0413 27.28C56.3613 27.4133 56.7213 27.5467 57.1213 27.68C57.4146 27.7867 57.6413 27.8933 57.8013 28C57.9613 28.1067 58.0413 28.2667 58.0413 28.48C58.0413 28.6667 57.9613 28.8133 57.8013 28.92C57.6679 29 57.4813 29.04 57.2413 29.04C56.7346 29.04 56.2279 29.0267 55.7213 29C55.2413 28.9733 54.7613 28.96 54.2813 28.96C53.8279 28.9333 53.3613 28.92 52.8813 28.92C52.4279 28.92 51.9746 28.9333 51.5213 28.96C51.0946 28.9867 50.6546 29.0133 50.2013 29.04C49.7479 29.0933 49.2546 29.12 48.7213 29.12ZM72.3434 29.76C72.2634 29.76 72.1434 29.6667 71.9834 29.48C71.8501 29.32 71.7834 29.1867 71.7834 29.08C71.8368 28.68 71.8768 28.3067 71.9034 27.96C71.9568 27.5867 71.9834 27.2533 71.9834 26.96V26.72C71.4501 27.5467 70.7034 28.2267 69.7434 28.76C68.8101 29.2933 67.7968 29.56 66.7034 29.56C65.2101 29.56 63.8768 29.1867 62.7034 28.44C61.5568 27.6933 60.6501 26.68 59.9834 25.4C59.3168 24.12 58.9834 22.72 58.9834 21.2C58.9834 19.3867 59.3834 17.7733 60.1834 16.36C60.9834 14.9467 62.1034 13.84 63.5434 13.04C64.9834 12.2133 66.6501 11.8 68.5434 11.8C68.9434 11.8 69.3568 11.84 69.7834 11.92C70.2368 11.9733 70.6501 12.0533 71.0234 12.16C71.3968 12.24 71.5701 12.28 71.5434 12.28C71.6501 12.28 71.7034 12.1067 71.7034 11.76V7C71.7034 6.04 71.5834 5.34667 71.3434 4.92C71.1034 4.49333 70.7034 4.22667 70.1434 4.12C69.8234 4.04 69.6634 3.84 69.6634 3.52C69.6634 3.17333 69.8101 2.97333 70.1034 2.92C71.0901 2.70667 72.1034 2.44 73.1434 2.12C74.2101 1.77333 75.0768 1.45333 75.7434 1.16C76.0901 0.999999 76.3301 0.906666 76.4634 0.88C76.5968 0.826665 76.6768 0.799998 76.7034 0.799998C76.9968 0.799998 77.1434 0.959999 77.1434 1.28C77.1434 1.2 77.1301 1.30666 77.1034 1.6C77.0768 1.86667 77.0501 2.22667 77.0234 2.68C76.9968 3.13333 76.9701 3.58667 76.9434 4.04L76.7434 24.2C76.7434 25.1067 76.8101 25.76 76.9434 26.16C77.0768 26.56 77.3168 26.76 77.6634 26.76C77.7968 26.76 77.9301 26.7467 78.0634 26.72C78.2234 26.6933 78.6101 26.6667 79.2234 26.64C79.5968 26.6133 79.7834 26.7467 79.7834 27.04C79.7834 27.2533 79.7034 27.48 79.5434 27.72C79.3834 27.96 79.2368 28.08 79.1034 28.08C78.1434 28.1867 77.1301 28.36 76.0634 28.6C75.0234 28.84 74.0101 29.1467 73.0234 29.52C72.8634 29.6 72.7301 29.6533 72.6234 29.68C72.5168 29.7333 72.4234 29.76 72.3434 29.76ZM68.7434 26.84C69.1434 26.84 69.6368 26.7333 70.2234 26.52C70.8368 26.3067 71.3301 26 71.7034 25.6L71.6634 16.76C71.6634 16.28 71.4768 15.8133 71.1034 15.36C70.7568 14.88 70.3034 14.48 69.7434 14.16C69.2101 13.84 68.6768 13.68 68.1434 13.68C67.5034 13.68 66.9034 13.9467 66.3434 14.48C65.8101 14.9867 65.3701 15.72 65.0234 16.68C64.7034 17.6133 64.5434 18.76 64.5434 20.12C64.5434 21.2133 64.6501 22.1733 64.8634 23C65.1034 23.8267 65.4234 24.5333 65.8234 25.12C66.2234 25.68 66.6768 26.1067 67.1834 26.4C67.6901 26.6933 68.2101 26.84 68.7434 26.84ZM87.9088 29.56C86.4688 29.56 85.1754 29.1867 84.0288 28.44C82.9088 27.6667 82.0154 26.6267 81.3488 25.32C80.7088 23.9867 80.3888 22.48 80.3888 20.8C80.3888 19.12 80.7754 17.6 81.5488 16.24C82.3221 14.8533 83.3754 13.76 84.7088 12.96C86.0421 12.1333 87.5088 11.72 89.1088 11.72C90.2554 11.72 91.2821 11.9733 92.1888 12.48C93.0954 12.96 93.8154 13.6133 94.3488 14.44C94.9088 15.2667 95.1888 16.2 95.1888 17.24C95.1888 18.2533 94.7754 18.76 93.9488 18.76H85.9488C85.5754 18.76 85.2954 18.8667 85.1088 19.08C84.9488 19.2933 84.8688 19.6533 84.8688 20.16C84.8688 21.1733 85.0954 22.1067 85.5488 22.96C86.0021 23.7867 86.6154 24.44 87.3888 24.92C88.1621 25.4 89.0554 25.64 90.0688 25.64C90.8421 25.64 91.5488 25.4933 92.1888 25.2C92.8554 24.9067 93.5088 24.5067 94.1488 24C94.2554 23.92 94.3488 23.8533 94.4288 23.8C94.5354 23.72 94.6288 23.68 94.7088 23.68C94.9754 23.68 95.1088 23.8533 95.1088 24.2C95.1088 24.4933 95.0021 24.8933 94.7888 25.4C94.5221 26.0667 94.0688 26.7333 93.4288 27.4C92.8154 28.04 92.0421 28.56 91.1088 28.96C90.1754 29.36 89.1088 29.56 87.9088 29.56ZM85.9488 17.08H88.3488C89.0954 17.08 89.6154 17.0667 89.9088 17.04C90.2021 17.0133 90.4688 16.96 90.7088 16.88C90.8421 16.8267 90.9488 16.6933 91.0288 16.48C91.1088 16.2667 91.1488 16.0267 91.1488 15.76C91.1488 15.04 90.8954 14.4533 90.3888 14C89.9088 13.5467 89.3088 13.32 88.5888 13.32C88.0288 13.32 87.4954 13.48 86.9888 13.8C86.5088 14.0933 86.1088 14.4933 85.7888 15C85.4954 15.48 85.3621 15.9867 85.3888 16.52C85.3888 16.8933 85.5754 17.08 85.9488 17.08ZM97.7884 29.12C97.6018 29.12 97.4151 29.08 97.2284 29C97.0684 28.8933 96.9884 28.7467 96.9884 28.56C96.9884 28.3467 97.0818 28.1867 97.2684 28.08C97.4551 27.9467 97.6684 27.84 97.9084 27.76C98.3084 27.6267 98.6551 27.48 98.9484 27.32C99.2684 27.1333 99.4284 26.7733 99.4284 26.24V17.08C99.4284 16.4933 99.3351 16 99.1484 15.6C98.9884 15.2 98.6684 14.9467 98.1884 14.84C98.0818 14.8133 97.9751 14.7467 97.8684 14.64C97.7884 14.5333 97.7484 14.36 97.7484 14.12C97.7484 13.7467 97.8818 13.52 98.1484 13.44C99.0551 13.2267 100.042 12.9467 101.108 12.6C102.202 12.2267 103.135 11.84 103.908 11.44C104.015 11.3867 104.135 11.32 104.268 11.24C104.402 11.16 104.522 11.12 104.628 11.12C104.788 11.12 104.882 11.1733 104.908 11.28C104.962 11.36 104.988 11.4667 104.988 11.6C104.988 11.8133 104.948 12.16 104.868 12.64C104.815 13.0933 104.788 13.5067 104.788 13.88C104.788 13.9867 104.788 14.1067 104.788 14.24C104.815 14.3733 104.842 14.4533 104.868 14.48C105.775 13.6 106.695 12.92 107.628 12.44C108.562 11.96 109.642 11.72 110.868 11.72C112.255 11.72 113.415 12.24 114.348 13.28C115.308 14.2933 115.788 15.68 115.788 17.44V26.24C115.788 26.7733 115.935 27.1333 116.228 27.32C116.548 27.48 116.908 27.6267 117.308 27.76C117.522 27.84 117.708 27.9467 117.868 28.08C118.028 28.1867 118.108 28.3467 118.108 28.56C118.108 28.7467 118.028 28.8933 117.868 29C117.735 29.08 117.588 29.12 117.428 29.12C116.895 29.12 116.388 29.0933 115.908 29.04C115.455 29.0133 115.002 28.9867 114.548 28.96C114.122 28.9333 113.668 28.92 113.188 28.92C112.735 28.92 112.282 28.9333 111.828 28.96C111.375 28.9867 110.922 29.0133 110.468 29.04C110.015 29.0933 109.522 29.12 108.988 29.12C108.828 29.12 108.668 29.08 108.508 29C108.375 28.8933 108.308 28.7467 108.308 28.56C108.308 28.3467 108.388 28.1867 108.548 28.08C108.708 27.9467 108.895 27.84 109.108 27.76C109.508 27.6267 109.842 27.48 110.108 27.32C110.375 27.1333 110.508 26.7733 110.508 26.24V18.28C110.508 17.2667 110.268 16.48 109.788 15.92C109.335 15.3333 108.722 15.0267 107.948 15C107.362 15 106.842 15.0933 106.388 15.28C105.935 15.4667 105.468 15.72 104.988 16.04C104.882 16.1467 104.802 16.2667 104.748 16.4C104.695 16.5333 104.668 16.6667 104.668 16.8V26.24C104.668 26.7733 104.815 27.1333 105.108 27.32C105.402 27.48 105.735 27.6267 106.108 27.76C106.642 27.92 106.908 28.1867 106.908 28.56C106.908 28.72 106.842 28.8533 106.708 28.96C106.575 29.0667 106.415 29.12 106.228 29.12C105.695 29.12 105.202 29.0933 104.748 29.04C104.295 29.0133 103.868 28.9867 103.468 28.96C103.068 28.9333 102.628 28.92 102.148 28.92C101.695 28.92 101.228 28.9333 100.748 28.96C100.295 28.9867 99.8151 29.0133 99.3084 29.04C98.8284 29.0933 98.3218 29.12 97.7884 29.12ZM143.577 29.28C142.67 29.28 141.67 29.2533 140.577 29.2C139.51 29.1467 138.51 29.0933 137.577 29.04C136.644 29.0133 135.937 29 135.457 29C134.924 29 134.337 29 133.697 29C133.057 29.0267 132.39 29.0533 131.697 29.08C131.03 29.1067 130.39 29.12 129.777 29.12C129.59 29.12 129.417 29.08 129.257 29C129.097 28.8933 129.017 28.7467 129.017 28.56C129.017 28.32 129.084 28.1333 129.217 28C129.377 27.8667 129.59 27.7733 129.857 27.72C130.87 27.5067 131.564 27.24 131.937 26.92C132.31 26.5733 132.497 25.9733 132.497 25.12V6.96C132.497 6.10667 132.324 5.50667 131.977 5.16C131.63 4.78667 130.924 4.48 129.857 4.24C129.59 4.18667 129.377 4.09333 129.217 3.96C129.084 3.82666 129.017 3.64 129.017 3.4C129.017 3.21333 129.097 3.06667 129.257 2.96C129.417 2.85333 129.59 2.8 129.777 2.8C130.39 2.8 131.03 2.81333 131.697 2.84C132.39 2.86666 133.057 2.90666 133.697 2.96C134.364 2.98667 134.964 3 135.497 3C135.924 3 136.484 2.98667 137.177 2.96C137.87 2.90666 138.617 2.86666 139.417 2.84C140.244 2.78667 141.03 2.74667 141.777 2.72C142.55 2.66667 143.177 2.64 143.657 2.64C145.684 2.64 147.55 2.96 149.257 3.6C150.99 4.21333 152.497 5.10667 153.777 6.28C155.084 7.42667 156.097 8.78667 156.817 10.36C157.537 11.9333 157.897 13.6667 157.897 15.56C157.897 17.3467 157.577 19.0667 156.937 20.72C156.297 22.3467 155.364 23.8133 154.137 25.12C152.91 26.4 151.417 27.4133 149.657 28.16C147.897 28.9067 145.87 29.28 143.577 29.28ZM142.977 27.24C144.79 27.24 146.31 26.8 147.537 25.92C148.764 25.0133 149.67 23.7733 150.257 22.2C150.87 20.6 151.177 18.7467 151.177 16.64C151.177 14.8533 150.977 13.24 150.577 11.8C150.204 10.3333 149.644 9.08 148.897 8.04C148.177 7 147.27 6.2 146.177 5.64C145.11 5.05333 143.897 4.76 142.537 4.76C141.684 4.76 140.964 4.78667 140.377 4.84C139.817 4.89333 139.39 5.02666 139.097 5.24C138.804 5.45333 138.657 5.8 138.657 6.28V23.72C138.657 24.6 138.817 25.2933 139.137 25.8C139.484 26.3067 139.977 26.68 140.617 26.92C141.284 27.1333 142.07 27.24 142.977 27.24ZM160.602 29.12C160.389 29.12 160.202 29.08 160.042 29C159.882 28.8933 159.802 28.7467 159.802 28.56C159.802 28.3467 159.882 28.1867 160.042 28.08C160.202 27.9467 160.429 27.84 160.722 27.76C161.309 27.5733 161.695 27.3733 161.882 27.16C162.095 26.9467 162.202 26.64 162.202 26.24V17.04C162.202 16.48 162.122 16.0267 161.962 15.68C161.829 15.3067 161.509 15.0533 161.002 14.92C160.869 14.8667 160.749 14.8 160.642 14.72C160.535 14.6133 160.482 14.44 160.482 14.2C160.482 13.8267 160.642 13.6 160.962 13.52C161.815 13.3067 162.749 13.0267 163.762 12.68C164.802 12.3333 165.682 11.9867 166.402 11.64C166.535 11.5333 166.695 11.44 166.882 11.36C167.095 11.2533 167.242 11.2 167.322 11.2C167.562 11.2 167.682 11.3467 167.682 11.64C167.682 11.7733 167.669 12.0533 167.642 12.48C167.642 12.88 167.629 13.2933 167.602 13.72C167.602 14.1467 167.589 14.5067 167.562 14.8C167.562 15.04 167.615 15.16 167.722 15.16C168.122 14.6 168.589 14.0533 169.122 13.52C169.682 12.9867 170.282 12.5467 170.922 12.2C171.562 11.8533 172.189 11.68 172.802 11.68C173.735 11.68 174.389 11.8533 174.762 12.2C175.162 12.5467 175.362 13 175.362 13.56C175.362 13.96 175.242 14.4 175.002 14.88C174.789 15.36 174.509 15.7733 174.162 16.12C173.815 16.4667 173.442 16.64 173.042 16.64C172.802 16.64 172.549 16.5867 172.282 16.48C172.015 16.3467 171.749 16.2133 171.482 16.08C171.215 15.9733 170.949 15.8667 170.682 15.76C170.442 15.6267 170.215 15.56 170.002 15.56C169.309 15.56 168.709 15.8133 168.202 16.32C167.695 16.8267 167.442 17.84 167.442 19.36V25.88C167.442 26.4133 167.602 26.8133 167.922 27.08C168.269 27.32 168.815 27.5467 169.562 27.76C169.855 27.84 170.069 27.9467 170.202 28.08C170.362 28.1867 170.442 28.3467 170.442 28.56C170.442 28.9333 170.215 29.12 169.762 29.12C168.962 29.12 168.135 29.08 167.282 29C166.429 28.9467 165.655 28.92 164.962 28.92C164.509 28.92 164.042 28.9333 163.562 28.96C163.109 28.9867 162.629 29.0133 162.122 29.04C161.642 29.0933 161.135 29.12 160.602 29.12ZM180.644 29.56C179.924 29.56 179.258 29.3867 178.644 29.04C178.031 28.6933 177.538 28.24 177.164 27.68C176.818 27.12 176.644 26.5067 176.644 25.84C176.644 24.9333 176.924 24.1733 177.484 23.56C178.071 22.9467 178.924 22.4 180.044 21.92L183.604 20.36C184.138 20.12 184.458 19.9067 184.564 19.72C184.698 19.5333 184.764 19.1867 184.764 18.68L184.804 16.4C184.831 15.6533 184.698 15.0667 184.404 14.64C184.111 14.1867 183.671 13.96 183.084 13.96C182.738 13.96 182.391 14.04 182.044 14.2C181.698 14.3333 181.431 14.4933 181.244 14.68C181.164 14.7867 181.098 14.92 181.044 15.08C181.018 15.2133 181.004 15.36 181.004 15.52C181.004 15.68 181.018 15.88 181.044 16.12C181.071 16.3333 181.084 16.52 181.084 16.68C181.084 16.84 180.871 17.0533 180.444 17.32C180.018 17.56 179.524 17.7867 178.964 18C178.404 18.1867 177.924 18.28 177.524 18.28C177.338 18.28 177.164 18.2 177.004 18.04C176.871 17.88 176.804 17.68 176.804 17.44C176.804 17.0133 176.951 16.6 177.244 16.2C177.538 15.7733 178.018 15.2933 178.684 14.76C179.378 14.1733 180.138 13.6533 180.964 13.2C181.791 12.7467 182.604 12.3867 183.404 12.12C184.231 11.8533 184.924 11.72 185.484 11.72C186.924 11.72 188.071 12.1867 188.924 13.12C189.778 14.0267 190.178 15.24 190.124 16.76L189.924 24.84C189.898 25.4533 190.004 25.9733 190.244 26.4C190.484 26.8267 190.778 27.04 191.124 27.04C191.631 27.04 192.071 26.8667 192.444 26.52C192.524 26.44 192.604 26.4 192.684 26.4C192.818 26.4 192.924 26.44 193.004 26.52C193.111 26.6 193.164 26.7067 193.164 26.84C193.164 27.16 192.924 27.5733 192.444 28.08C191.938 28.56 191.404 28.92 190.844 29.16C190.284 29.4267 189.698 29.56 189.084 29.56C187.591 29.56 186.351 28.8 185.364 27.28H185.284C184.404 28.08 183.604 28.6533 182.884 29C182.191 29.3733 181.444 29.56 180.644 29.56ZM183.044 26.96C183.338 26.96 183.578 26.92 183.764 26.84C183.951 26.7333 184.138 26.5733 184.324 26.36C184.404 26.2533 184.471 26.12 184.524 25.96C184.578 25.7733 184.604 25.56 184.604 25.32L184.724 22.44C184.724 22.1733 184.684 22 184.604 21.92C184.524 21.84 184.431 21.8 184.324 21.8C184.271 21.8 184.204 21.8133 184.124 21.84C184.044 21.8667 183.951 21.9067 183.844 21.96C183.071 22.3333 182.498 22.72 182.124 23.12C181.751 23.4933 181.564 24.1067 181.564 24.96C181.564 25.7333 181.724 26.2667 182.044 26.56C182.364 26.8267 182.698 26.96 183.044 26.96ZM201.663 40.56C199.05 40.56 197.01 40.1467 195.543 39.32C194.103 38.52 193.383 37.4133 193.383 36C193.383 35.2 193.477 34.5467 193.663 34.04C193.85 33.56 194.277 33.08 194.943 32.6C195.45 32.2267 195.943 31.8533 196.423 31.48C196.903 31.1067 197.317 30.8 197.663 30.56L199.623 31.24C198.797 31.72 198.143 32.24 197.663 32.8C197.21 33.36 196.983 34.0133 196.983 34.76C196.983 35.8533 197.437 36.76 198.343 37.48C199.277 38.2 200.437 38.56 201.823 38.56C203.663 38.56 204.97 38.2 205.743 37.48C206.223 37 206.61 36.4533 206.903 35.84C207.197 35.2533 207.343 34.6533 207.343 34.04C207.343 33.6133 207.197 33.2667 206.903 33C206.61 32.7333 206.077 32.5067 205.303 32.32C204.557 32.1333 203.503 31.9733 202.143 31.84C199.37 31.5733 197.397 31.0533 196.223 30.28C195.05 29.5067 194.463 28.48 194.463 27.2C194.463 26.96 194.53 26.72 194.663 26.48C194.823 26.2133 195.117 25.9333 195.543 25.64C195.97 25.32 196.357 25.04 196.703 24.8C197.05 24.5333 197.343 24.2933 197.583 24.08C197.823 23.84 197.983 23.6267 198.063 23.44L200.063 24.12C199.53 24.3067 199.09 24.56 198.743 24.88C198.423 25.2 198.263 25.48 198.263 25.72C198.263 26.0133 198.437 26.2533 198.783 26.44C199.13 26.6267 199.717 26.7867 200.543 26.92C201.37 27.0267 202.503 27.1333 203.943 27.24C206.823 27.48 208.917 27.9333 210.223 28.6C211.53 29.24 212.183 30.1867 212.183 31.44C212.183 32.5333 211.877 33.6133 211.263 34.68C210.65 35.7733 209.837 36.76 208.823 37.64C207.81 38.5467 206.677 39.2533 205.423 39.76C204.197 40.2933 202.943 40.56 201.663 40.56ZM202.183 23.4C203.037 23.4 203.703 22.9333 204.183 22C204.69 21.04 204.943 19.7867 204.943 18.24C204.943 17.2533 204.81 16.4 204.543 15.68C204.303 14.9333 203.97 14.36 203.543 13.96C203.117 13.5333 202.61 13.32 202.023 13.32C201.517 13.32 201.05 13.5333 200.623 13.96C200.197 14.3867 199.85 14.96 199.583 15.68C199.343 16.3733 199.223 17.1867 199.223 18.12C199.223 19.1067 199.357 20 199.623 20.8C199.89 21.6 200.25 22.24 200.703 22.72C201.157 23.1733 201.65 23.4 202.183 23.4ZM201.743 25.16C200.57 25.16 199.41 24.88 198.263 24.32C197.143 23.7333 196.21 22.9333 195.463 21.92C194.743 20.9067 194.383 19.7733 194.383 18.52C194.383 17.1867 194.757 16 195.503 14.96C196.277 13.92 197.277 13.12 198.503 12.56C199.757 11.9733 201.077 11.68 202.463 11.68C203.29 11.68 204.063 11.7733 204.783 11.96C205.53 12.1467 206.343 12.3067 207.223 12.44C207.73 12.5467 208.237 12.6267 208.743 12.68C209.25 12.7333 209.81 12.76 210.423 12.76C210.823 12.76 211.223 12.7467 211.623 12.72C212.023 12.6667 212.357 12.64 212.623 12.64C213.05 12.64 213.263 12.9333 213.263 13.52C213.263 14.0267 213.09 14.5067 212.743 14.96C212.583 15.1467 212.41 15.24 212.223 15.24H211.143C210.45 15.24 209.983 15.3467 209.743 15.56C209.69 15.6133 209.65 15.68 209.623 15.76C209.597 15.8133 209.57 15.96 209.543 16.2C209.543 16.4133 209.543 16.8267 209.543 17.44C209.543 18.8267 209.183 20.1067 208.463 21.28C207.743 22.4533 206.797 23.4 205.623 24.12C204.45 24.8133 203.157 25.16 201.743 25.16ZM222.191 29.56C220.591 29.56 219.151 29.2 217.871 28.48C216.591 27.76 215.564 26.7733 214.791 25.52C214.044 24.24 213.671 22.8 213.671 21.2C213.671 19.92 213.911 18.7067 214.391 17.56C214.871 16.4133 215.538 15.4 216.391 14.52C217.244 13.64 218.244 12.9467 219.391 12.44C220.538 11.9333 221.764 11.68 223.071 11.68C224.724 11.68 226.218 12.0667 227.551 12.84C228.884 13.6133 229.938 14.64 230.711 15.92C231.511 17.1733 231.911 18.5467 231.911 20.04C231.911 21.7467 231.538 23.3333 230.791 24.8C230.071 26.24 228.991 27.4 227.551 28.28C226.138 29.1333 224.351 29.56 222.191 29.56ZM222.991 27.8C223.551 27.8 224.031 27.6933 224.431 27.48C224.858 27.24 225.204 26.8933 225.471 26.44C225.791 25.9067 226.004 25.1867 226.111 24.28C226.244 23.3467 226.311 22.2533 226.311 21C226.311 19.56 226.151 18.28 225.831 17.16C225.511 16.0133 225.058 15.1067 224.471 14.44C223.911 13.7733 223.244 13.44 222.471 13.44C222.044 13.44 221.658 13.52 221.311 13.68C220.964 13.8133 220.658 14.0133 220.391 14.28C219.938 14.8133 219.618 15.5733 219.431 16.56C219.271 17.5467 219.191 18.76 219.191 20.2C219.191 21.48 219.351 22.7067 219.671 23.88C220.018 25.0267 220.471 25.9733 221.031 26.72C221.618 27.44 222.271 27.8 222.991 27.8ZM234.468 29.12C234.281 29.12 234.095 29.08 233.908 29C233.748 28.8933 233.668 28.7467 233.668 28.56C233.668 28.3467 233.761 28.1867 233.948 28.08C234.135 27.9467 234.348 27.84 234.588 27.76C234.988 27.6267 235.335 27.48 235.628 27.32C235.948 27.1333 236.108 26.7733 236.108 26.24V17.08C236.108 16.4933 236.015 16 235.828 15.6C235.668 15.2 235.348 14.9467 234.868 14.84C234.761 14.8133 234.655 14.7467 234.548 14.64C234.468 14.5333 234.428 14.36 234.428 14.12C234.428 13.7467 234.561 13.52 234.828 13.44C235.735 13.2267 236.721 12.9467 237.788 12.6C238.881 12.2267 239.815 11.84 240.588 11.44C240.695 11.3867 240.815 11.32 240.948 11.24C241.081 11.16 241.201 11.12 241.308 11.12C241.468 11.12 241.561 11.1733 241.588 11.28C241.641 11.36 241.668 11.4667 241.668 11.6C241.668 11.8133 241.628 12.16 241.548 12.64C241.495 13.0933 241.468 13.5067 241.468 13.88C241.468 13.9867 241.468 14.1067 241.468 14.24C241.495 14.3733 241.521 14.4533 241.548 14.48C242.455 13.6 243.375 12.92 244.308 12.44C245.241 11.96 246.321 11.72 247.548 11.72C248.935 11.72 250.095 12.24 251.028 13.28C251.988 14.2933 252.468 15.68 252.468 17.44V26.24C252.468 26.7733 252.615 27.1333 252.908 27.32C253.228 27.48 253.588 27.6267 253.988 27.76C254.201 27.84 254.388 27.9467 254.548 28.08C254.708 28.1867 254.788 28.3467 254.788 28.56C254.788 28.7467 254.708 28.8933 254.548 29C254.415 29.08 254.268 29.12 254.108 29.12C253.575 29.12 253.068 29.0933 252.588 29.04C252.135 29.0133 251.681 28.9867 251.228 28.96C250.801 28.9333 250.348 28.92 249.868 28.92C249.415 28.92 248.961 28.9333 248.508 28.96C248.055 28.9867 247.601 29.0133 247.148 29.04C246.695 29.0933 246.201 29.12 245.668 29.12C245.508 29.12 245.348 29.08 245.188 29C245.055 28.8933 244.988 28.7467 244.988 28.56C244.988 28.3467 245.068 28.1867 245.228 28.08C245.388 27.9467 245.575 27.84 245.788 27.76C246.188 27.6267 246.521 27.48 246.788 27.32C247.055 27.1333 247.188 26.7733 247.188 26.24V18.28C247.188 17.2667 246.948 16.48 246.468 15.92C246.015 15.3333 245.401 15.0267 244.628 15C244.041 15 243.521 15.0933 243.068 15.28C242.615 15.4667 242.148 15.72 241.668 16.04C241.561 16.1467 241.481 16.2667 241.428 16.4C241.375 16.5333 241.348 16.6667 241.348 16.8V26.24C241.348 26.7733 241.495 27.1333 241.788 27.32C242.081 27.48 242.415 27.6267 242.788 27.76C243.321 27.92 243.588 28.1867 243.588 28.56C243.588 28.72 243.521 28.8533 243.388 28.96C243.255 29.0667 243.095 29.12 242.908 29.12C242.375 29.12 241.881 29.0933 241.428 29.04C240.975 29.0133 240.548 28.9867 240.148 28.96C239.748 28.9333 239.308 28.92 238.828 28.92C238.375 28.92 237.908 28.9333 237.428 28.96C236.975 28.9867 236.495 29.0133 235.988 29.04C235.508 29.0933 235.001 29.12 234.468 29.12Z" fill="url(#paint0_linear_4_2)"/>
<defs>
<linearGradient id="paint0_linear_4_2" x1="-1" y1="15" x2="328" y2="15" gradientUnits="userSpaceOnUse">
<stop stop-color="#8A1E2D"/>
<stop offset="1" stop-color="#C28B00"/>
</linearGradient>
</defs>
</svg>
