<svg width="495" height="580" viewBox="0 0 495 580" fill="none" xmlns="http://www.w3.org/2000/svg">
<line x1="10.5469" y1="60" x2="10.5469" stroke="#8A1E2D" stroke-width="2.34375"/>
<line x1="11.7188" y1="1.17188" y2="1.17188" stroke="#8A1E2D" stroke-width="2.34375"/>
<line x1="11.7188" y1="10.5469" y2="10.5469" stroke="#8A1E2D" stroke-width="2.34375"/>
<line x1="1.17188" y1="0.9375" x2="1.17188" y2="11.25" stroke="#8A1E2D" stroke-width="2.34375"/>
<rect x="0.9375" y="18.75" width="16.875" height="16.875" stroke="#8A1E2D" stroke-width="1.875"/>
<rect x="17.8125" y="1.875" width="16.875" height="16.875" stroke="#8A1E2D" stroke-width="1.875"/>
<line x1="9.375" y1="10.5469" x2="61.875" y2="10.5469" stroke="#8A1E2D" stroke-width="2.34375"/>
<line x1="16.875" y1="25.0781" x2="30.9375" y2="25.0781" stroke="#8A1E2D" stroke-width="2.34375"/>
<line x1="23.6719" y1="32.8125" x2="23.6719" y2="18.75" stroke="#8A1E2D" stroke-width="2.34375"/>
<line x1="23.9062" y1="31.6406" x2="30.9375" y2="31.6406" stroke="#8A1E2D" stroke-width="2.34375"/>
<line x1="29.7656" y1="32.3438" x2="29.7656" y2="25.3125" stroke="#8A1E2D" stroke-width="2.34375"/>
<line x1="484.328" y1="520" x2="484.328" y2="580" stroke="#8A1E2D" stroke-width="2.34375"/>
<line x1="483.156" y1="578.828" x2="494.875" y2="578.828" stroke="#8A1E2D" stroke-width="2.34375"/>
<line x1="483.156" y1="569.453" x2="494.875" y2="569.453" stroke="#8A1E2D" stroke-width="2.34375"/>
<line x1="493.703" y1="579.062" x2="493.703" y2="568.75" stroke="#8A1E2D" stroke-width="2.34375"/>
<rect x="493.938" y="561.25" width="16.875" height="16.875" transform="rotate(-180 493.938 561.25)" stroke="#8A1E2D" stroke-width="1.875"/>
<rect x="477.062" y="578.125" width="16.875" height="16.875" transform="rotate(-180 477.062 578.125)" stroke="#8A1E2D" stroke-width="1.875"/>
<line x1="485.5" y1="569.453" x2="433" y2="569.453" stroke="#8A1E2D" stroke-width="2.34375"/>
<line x1="478" y1="554.922" x2="463.938" y2="554.922" stroke="#8A1E2D" stroke-width="2.34375"/>
<line x1="471.203" y1="547.188" x2="471.203" y2="561.25" stroke="#8A1E2D" stroke-width="2.34375"/>
<line x1="470.969" y1="548.359" x2="463.938" y2="548.359" stroke="#8A1E2D" stroke-width="2.34375"/>
<line x1="465.109" y1="547.656" x2="465.109" y2="554.688" stroke="#8A1E2D" stroke-width="2.34375"/>
<line x1="434" y1="15.5469" x2="494" y2="15.5469" stroke="#8A1E2D" stroke-width="2.34375"/>
<line x1="492.828" y1="16.7188" x2="492.828" y2="5" stroke="#8A1E2D" stroke-width="2.34375"/>
<line x1="483.453" y1="16.7188" x2="483.453" y2="5" stroke="#8A1E2D" stroke-width="2.34375"/>
<line x1="493.062" y1="6.17188" x2="482.75" y2="6.17188" stroke="#8A1E2D" stroke-width="2.34375"/>
<rect x="475.25" y="5.9375" width="16.875" height="16.875" transform="rotate(90 475.25 5.9375)" stroke="#8A1E2D" stroke-width="1.875"/>
<rect x="492.125" y="22.8125" width="16.875" height="16.875" transform="rotate(90 492.125 22.8125)" stroke="#8A1E2D" stroke-width="1.875"/>
<line x1="483.453" y1="14.375" x2="483.453" y2="66.875" stroke="#8A1E2D" stroke-width="2.34375"/>
<line x1="468.922" y1="21.875" x2="468.922" y2="35.9375" stroke="#8A1E2D" stroke-width="2.34375"/>
<line x1="461.188" y1="28.6719" x2="475.25" y2="28.6719" stroke="#8A1E2D" stroke-width="2.34375"/>
<line x1="462.359" y1="28.9062" x2="462.359" y2="35.9375" stroke="#8A1E2D" stroke-width="2.34375"/>
<line x1="461.656" y1="34.7656" x2="468.688" y2="34.7656" stroke="#8A1E2D" stroke-width="2.34375"/>
<line x1="60" y1="564.328" y2="564.328" stroke="#8A1E2D" stroke-width="2.34375"/>
<line x1="1.17188" y1="563.156" x2="1.17188" y2="574.875" stroke="#8A1E2D" stroke-width="2.34375"/>
<line x1="10.5469" y1="563.156" x2="10.5469" y2="574.875" stroke="#8A1E2D" stroke-width="2.34375"/>
<line x1="0.9375" y1="573.703" x2="11.25" y2="573.703" stroke="#8A1E2D" stroke-width="2.34375"/>
<rect x="18.75" y="573.938" width="16.875" height="16.875" transform="rotate(-90 18.75 573.938)" stroke="#8A1E2D" stroke-width="1.875"/>
<rect x="1.875" y="557.062" width="16.875" height="16.875" transform="rotate(-90 1.875 557.062)" stroke="#8A1E2D" stroke-width="1.875"/>
<line x1="10.5469" y1="565.5" x2="10.5469" y2="513" stroke="#8A1E2D" stroke-width="2.34375"/>
<line x1="25.0781" y1="558" x2="25.0781" y2="543.938" stroke="#8A1E2D" stroke-width="2.34375"/>
<line x1="32.8125" y1="551.203" x2="18.75" y2="551.203" stroke="#8A1E2D" stroke-width="2.34375"/>
<line x1="31.6406" y1="550.969" x2="31.6406" y2="543.938" stroke="#8A1E2D" stroke-width="2.34375"/>
<line x1="32.3438" y1="545.109" x2="25.3125" y2="545.109" stroke="#8A1E2D" stroke-width="2.34375"/>
</svg>
