<svg width="358" height="117" viewBox="0 0 358 117" fill="none" xmlns="http://www.w3.org/2000/svg">
<path d="M1.69421 0C1.69421 0 189.047 0.578801 281.524 5.20921C323.002 7.28609 350.035 0 350.035 0L341.288 8.87076C341.288 8.87076 345.339 18.9243 352.421 18.9243C364.351 18.9243 338.106 34.8917 338.106 34.8917C338.106 34.8917 348.03 42.226 354.808 43.171C367.533 44.9452 338.106 60.3212 338.106 60.3212C338.106 60.3212 365.942 75.6971 352.421 78.0627C344.287 79.4859 338.106 89.8904 338.106 89.8904L350.035 108.815C350.035 108.815 207.024 119.756 112.524 116.339C69.189 114.772 1.69421 108.815 1.69421 108.815L15.2143 97.5784C15.2143 97.5784 0.178101 88.9677 5.6707 86.3421C16.8049 81.0196 26.3485 78.0627 26.3485 78.0627C26.3485 78.0627 19.1908 70.3747 5.6707 67.4178C-2.15048 65.7072 15.2143 54.9987 15.2143 54.9987C15.2143 54.9987 23.9622 49.6763 5.6707 42.5796C-12.6208 35.483 19.1908 29.5692 19.1908 29.5692C19.1908 29.5692 10.4425 21.8812 1.69421 16.5588C-7.0541 11.2363 26.3485 11.2363 26.3485 11.2363L1.69421 0Z" fill="#8A1E2D"/>
</svg>
