<svg width="72" height="98" viewBox="0 0 72 98" fill="none" xmlns="http://www.w3.org/2000/svg">
<path d="M70.6403 49.2555C70.8356 46.384 70.313 43.6101 69.0725 40.9338" stroke="#E48698" stroke-width="1.08497"/>
<path d="M69.0725 40.9338C65.2173 32.2468 58.9154 26.2705 50.1669 23.0047C50.0615 22.965 49.9708 22.8943 49.9068 22.8022C49.8428 22.7101 49.8087 22.601 49.8089 22.4894L49.7384 16.5708C49.7341 16.213 49.5886 15.8714 49.3335 15.6204C49.0785 15.3695 48.7346 15.2295 48.3767 15.2309L38.0045 15.2689C37.7404 15.2689 37.6084 15.1387 37.6084 14.8783L37.6138 2.49882C37.6138 1.58021 37.1546 1.08293 36.236 1.00699C36.1311 0.996136 36.019 0.997917 35.8996 1.01238C35.5711 1.0509 35.2682 1.2086 35.0482 1.45557C34.8283 1.70253 34.7065 2.02161 34.7061 2.35233L34.7224 14.7372C34.7224 14.8811 34.6653 15.0191 34.5635 15.1208C34.4618 15.2225 34.3238 15.2797 34.1799 15.2797L23.6449 15.2689C22.5852 15.2689 22.0536 15.7987 22.05 16.8584L22.0283 22.4785C22.0282 22.5786 21.9979 22.676 21.9416 22.7575C21.8854 22.839 21.8058 22.9007 21.7136 22.9342C11.7102 26.6556 3.92562 34.5216 1.65803 44.9753C-1.61314 60.078 7.66332 73.7649 21.6811 78.8914C21.7853 78.929 21.8749 78.9986 21.9372 79.0901C21.9996 79.1817 22.0315 79.2906 22.0283 79.4013C21.9849 81.1951 22.0102 83.0305 22.1042 84.9075C22.1621 86.0142 22.7118 86.5675 23.7534 86.5675C23.8747 86.5675 23.9912 86.6148 24.0775 86.6991C24.1639 86.7834 24.2131 86.8979 24.2145 87.0178L24.285 95.8277C24.2857 95.988 24.318 96.1466 24.38 96.2944C24.442 96.4422 24.5325 96.5764 24.6464 96.6892C24.7602 96.802 24.8951 96.8913 25.0435 96.952C25.1919 97.0127 25.3507 97.0436 25.511 97.0429L46.082 97.032C47.0368 97.032 47.5124 96.5546 47.5087 95.5999L47.4979 86.9093C47.4943 86.6598 47.6155 86.5512 47.8614 86.5838C48.5666 86.6778 49.1706 86.5079 49.6733 86.0739C49.8577 85.9147 49.95 85.7122 49.95 85.4663V79.5098C49.9496 79.3717 49.9921 79.2367 50.0717 79.1231C50.1513 79.0095 50.2641 78.923 50.3948 78.8751C63.0509 74.2803 71.2804 62.9152 70.6402 49.2555" stroke="#9498A1" stroke-width="1.08497"/>
<path d="M69.0725 40.9338L70.6403 49.2555" stroke="#7B213B" stroke-width="1.08497"/>
<path d="M38.6337 21.681L46.7601 21.7896C46.959 21.7932 47.0585 21.6955 47.0585 21.4966L47.0422 18.5021C47.0422 18.314 46.95 18.22 46.7656 18.22L39.2684 18.2634" stroke="#957422" stroke-width="1.08497"/>
<path d="M39.2684 18.264L25.0825 18.2152C24.8546 18.2116 24.7425 18.3237 24.7461 18.5515L24.7732 21.6111C24.7739 21.6545 24.7832 21.6975 24.8005 21.7373C24.8178 21.7772 24.8427 21.8133 24.874 21.8435C24.9052 21.8737 24.9421 21.8975 24.9825 21.9135C25.023 21.9295 25.0661 21.9373 25.1096 21.9366L38.6337 21.6816" stroke="#948E66" stroke-width="1.08497"/>
<path d="M39.2684 18.2634C38.6644 19.2688 38.4529 20.408 38.6337 21.681" stroke="#FFCE44" stroke-width="1.08497"/>
<path d="M33.67 77.2317C33.7354 77.2537 33.8062 77.2551 33.8731 77.2357C33.9399 77.2164 33.9996 77.1772 34.0443 77.1232C34.142 77.0039 34.1637 76.8755 34.1094 76.7381C29.7442 65.9752 28.1602 55.0496 29.3573 43.9612C30.095 37.115 31.3753 31.126 34.1582 25.1587C34.2089 25.0502 34.2414 24.9525 34.2559 24.8657C34.2689 24.797 34.2637 24.7262 34.2409 24.6601C34.2181 24.594 34.1784 24.535 34.1258 24.489C34.0732 24.4429 34.0095 24.4114 33.9409 24.3976C33.8724 24.3838 33.8014 24.388 33.7351 24.41C18.5835 29.2273 14.1677 48.2522 19.0935 61.7981C21.6757 68.8883 26.5852 74.8448 33.67 77.2317Z" stroke="#933E4A" stroke-width="1.08497"/>
<path d="M53.3947 53.4599C54.3115 42.5343 50.1127 28.3863 38.5252 24.5672C38.3119 24.4949 38.1184 24.4768 37.9448 24.513C37.9071 24.5197 37.8716 24.5352 37.8411 24.5582C37.8105 24.5812 37.7858 24.6111 37.7689 24.6454C37.752 24.6797 37.7434 24.7175 37.7438 24.7557C37.7442 24.794 37.7536 24.8316 37.7712 24.8655C41.8398 32.9594 43.1147 42.3064 43.1526 51.4039C43.1852 58.0656 42.2792 64.6133 40.5541 70.4342C40.0189 72.2424 39.2413 74.3292 38.2214 76.6945C37.9104 77.4141 38.1184 77.6257 38.8453 77.3292C48.2954 73.4667 52.5593 63.4579 53.3947 53.4599Z" stroke="#933E4A" stroke-width="1.08497"/>
<path d="M14.9 56.9375C13.41 48.4964 14.6632 40.5888 18.6594 33.2146" stroke="#956871" stroke-width="1.08497"/>
<path d="M18.6594 33.2145C20.5834 29.9849 22.9758 27.3882 25.8365 25.4244C26.6213 24.8856 26.5453 24.7084 25.6086 24.8928C19.3592 26.108 13.2617 30.3773 9.51316 35.276C-2.8175 51.4149 6.90381 71.7905 25.2126 76.879C25.6322 76.9947 25.9685 77.0526 26.2217 77.0526C26.8365 77.049 26.8889 76.8755 26.379 76.5319C25.9721 76.2552 25.4567 76.0057 25.0607 75.6422C19.5382 70.4778 16.1513 64.2428 14.9 56.9374" stroke="#933E4A" stroke-width="1.08497"/>
<path d="M18.6595 33.2146C17.7698 33.3267 16.8259 33.8819 15.8277 34.8801C11.4987 39.1946 9.27449 44.3229 9.15514 50.2649C9.10813 52.7025 9.62891 55.225 10.7175 57.8325C10.7898 58.0025 10.9182 58.0857 11.1027 58.0821C12.7808 58.0676 14.0466 57.6861 14.9001 56.9375" stroke="#FD7376" stroke-width="1.08497"/>
<path d="M51.7673 69.6533C50.9825 70.7346 50.1344 71.9281 49.223 73.2336C48.3369 74.4994 46.9102 75.7472 44.9428 76.9768C44.7692 77.0853 44.762 77.2028 44.9211 77.3294C45.0513 77.4343 45.2303 77.4487 45.4582 77.3728C47.6986 76.6187 50.1832 75.919 52.1578 74.9642C58.0166 72.1324 62.362 67.731 65.1937 61.7601C67.4034 57.102 68.0815 52.2341 67.228 47.1565C66.0201 39.9921 62.5229 34.2743 56.7364 30.0031C56.0348 29.486 54.6008 28.5746 52.4345 27.269C51.4942 26.7048 50.4707 26.3938 49.364 26.3359" stroke="#7B213B" stroke-width="1.08497"/>
<path d="M49.3641 26.336C48.5359 25.515 47.3406 25.034 45.7782 24.8929C45.384 24.8568 45.3406 24.9616 45.648 25.2076C49.6624 28.3919 52.3857 32.3955 54.1597 37.3538C56.3151 43.397 57.0276 49.5561 56.297 55.8308C55.7798 60.2502 54.2699 64.8577 51.7673 69.6533" stroke="#933E4A" stroke-width="1.08497"/>
<path d="M49.364 26.3359C56.0474 32.9542 59.3891 40.7642 59.3891 49.7658C59.3891 53.1997 58.7165 57.0568 57.6858 60.3063C56.5683 63.8505 54.5954 66.9662 51.7673 69.6533" stroke="#E32C41" stroke-width="1.08497"/>
<path d="M33.9304 34.5271C33.4476 38.1129 34.6628 40.9609 36.0298 44.2592C36.045 44.2989 36.071 44.3337 36.1049 44.3594C36.1387 44.3851 36.1791 44.4008 36.2214 44.4047C36.2638 44.4087 36.3064 44.4007 36.3444 44.3817C36.3824 44.3627 36.4144 44.3335 36.4367 44.2972C38.6681 40.8398 39.1834 37.0678 37.9828 32.981C37.4439 31.1366 36.8815 29.4893 36.2956 28.039C36.1799 27.7497 36.0551 27.7443 35.9213 28.0227C34.8942 30.1456 34.2306 32.3138 33.9304 34.5271Z" stroke="#956B2F" stroke-width="1.08497"/>
<path d="M33.2198 52.9339C32.9268 52.9194 32.6519 52.8452 32.3952 52.7114C31.8961 52.4546 31.6484 52.6065 31.652 53.1671C31.6628 55.7565 31.8707 58.1742 32.2758 60.4201C32.453 61.3893 32.6357 61.3911 32.8237 60.4255C33.0841 59.1019 33.5235 57.8813 34.1419 56.7638C34.594 55.9536 34.8418 55.1598 34.8852 54.3822C35.0534 51.5342 35.3843 48.1165 34.104 45.6862C33.5073 44.547 32.9684 43.3011 32.4874 41.9486C32.3283 41.4965 32.2035 41.5073 32.1131 41.9811C31.5706 44.8128 31.4296 47.8978 31.6899 51.2359C31.708 51.4746 31.8364 51.5831 32.0751 51.5614C32.9322 51.4782 33.4096 51.8326 33.5073 52.6246C33.5129 52.6641 33.5097 52.7044 33.4976 52.7426C33.4856 52.7808 33.4651 52.8159 33.4376 52.8454C33.4102 52.875 33.3764 52.8982 33.3387 52.9135C33.3011 52.9288 33.2604 52.9357 33.2198 52.9339Z" stroke="#933E4A" stroke-width="1.08497"/>
<path d="M38.3408 56.4058C39.0134 57.5884 39.4329 58.7367 39.5993 59.8506C39.762 60.9681 39.9393 60.9717 40.131 59.8614C40.442 58.0784 40.5378 56.0406 40.4184 53.7477C40.3805 52.9936 39.7566 52.5487 40.131 51.7296C40.3407 51.2775 40.4619 50.8164 40.4944 50.3463C40.6572 48.1583 40.6011 45.8473 40.3262 43.4133C40.2069 42.3754 39.9592 42.3446 39.583 43.3211C39.1563 44.4386 38.6066 45.614 37.9339 46.8472C37.5722 47.5127 37.4077 48.2577 37.4402 49.0822C37.5162 50.9158 37.5577 52.5741 37.565 54.0569C37.5686 54.7151 37.8272 55.498 38.3408 56.4058Z" stroke="#933E4A" stroke-width="1.08497"/>
<path d="M36.5126 74.0907C38.6229 68.7473 39.3227 63.5177 36.5614 58.3044C36.5472 58.2771 36.5258 58.2543 36.4995 58.2383C36.4732 58.2223 36.443 58.2139 36.4122 58.2139C36.3815 58.2139 36.3513 58.2223 36.325 58.2383C36.2987 58.2543 36.2773 58.2771 36.2631 58.3044C33.9666 62.5177 33.4747 66.7111 34.7875 70.8846C35.1419 72.0021 35.5217 73.0709 35.9267 74.0907C36.1257 74.5826 36.321 74.5826 36.5126 74.0907Z" stroke="#956B2F" stroke-width="1.08497"/>
<path d="M37.7766 83.5624L46.8089 83.6112C47.0729 83.6112 47.2049 83.4792 47.2049 83.2152L47.1941 80.4051C47.1941 80.3607 47.1852 80.3168 47.1679 80.2759C47.1506 80.2351 47.1252 80.1981 47.0933 80.1672C47.0615 80.1363 47.0237 80.1122 46.9823 80.0962C46.9409 80.0802 46.8967 80.0727 46.8523 80.0742L37.7169 80.3725" stroke="#957422" stroke-width="1.08497"/>
<path d="M37.7169 80.3728C33.2866 80.4994 29.039 80.3801 24.974 80.0148C24.9456 80.0118 24.917 80.0148 24.8898 80.0238C24.8627 80.0327 24.8376 80.0474 24.8162 80.0668C24.7948 80.0861 24.7775 80.1098 24.7654 80.1364C24.7534 80.1629 24.7468 80.1917 24.7461 80.2209L24.7244 83.3674C24.7244 83.559 24.8203 83.6549 25.012 83.6549L37.7766 83.5627" stroke="#948E66" stroke-width="1.08497"/>
<path d="M37.7169 80.3726L37.7766 83.5624" stroke="#FFCE44" stroke-width="1.08497"/>
<path d="M34.6638 87.0753C34.6642 87.0019 34.6501 86.9292 34.6224 86.8612C34.5947 86.7933 34.5539 86.7315 34.5023 86.6793C34.4506 86.6272 34.3892 86.5857 34.3216 86.5573C34.254 86.5288 34.1814 86.514 34.108 86.5136L34.0646 86.5134C33.9912 86.513 33.9185 86.5271 33.8505 86.5548C33.7826 86.5825 33.7208 86.6234 33.6686 86.675C33.6165 86.7266 33.575 86.788 33.5465 86.8556C33.5181 86.9232 33.5033 86.9959 33.5029 87.0692L33.4682 93.6983C33.4678 93.7717 33.4819 93.8444 33.5096 93.9123C33.5373 93.9803 33.5782 94.0421 33.6298 94.0942C33.6814 94.1464 33.7428 94.1878 33.8104 94.2163C33.8781 94.2447 33.9507 94.2596 34.024 94.26L34.0674 94.2602C34.1408 94.2606 34.2135 94.2465 34.2815 94.2188C34.3494 94.1911 34.4112 94.1502 34.4634 94.0986C34.5155 94.047 34.557 93.9856 34.5855 93.918C34.6139 93.8503 34.6287 93.7777 34.6291 93.7043L34.6638 87.0753Z" stroke="#948E66" stroke-width="1.08497"/>
<path d="M37.9225 87.0921C37.9222 87.0152 37.9068 86.939 37.8771 86.868C37.8474 86.797 37.804 86.7326 37.7494 86.6784C37.6948 86.6242 37.6301 86.5813 37.5589 86.5521C37.4877 86.5229 37.4115 86.508 37.3345 86.5083L37.2911 86.5084C37.1357 86.509 36.987 86.5712 36.8775 86.6815C36.768 86.7917 36.7068 86.941 36.7073 87.0963L36.7302 93.6604C36.7305 93.7373 36.7459 93.8134 36.7756 93.8844C36.8053 93.9554 36.8487 94.0199 36.9033 94.0741C36.9579 94.1283 37.0226 94.1712 37.0938 94.2004C37.165 94.2296 37.2412 94.2445 37.3181 94.2442L37.3615 94.2441C37.5169 94.2435 37.6657 94.1813 37.7752 94.071C37.8847 93.9608 37.9459 93.8115 37.9453 93.6562L37.9225 87.0921Z" stroke="#948E66" stroke-width="1.08497"/>
<path d="M41.1295 87.0789C41.1297 87.0013 41.1145 86.9244 41.0849 86.8526C41.0553 86.7808 41.0119 86.7155 40.957 86.6605C40.9022 86.6055 40.8371 86.5618 40.7654 86.532C40.6937 86.5022 40.6169 86.4868 40.5392 86.4866L40.5067 86.4866C40.429 86.4864 40.3521 86.5016 40.2803 86.5312C40.2085 86.5608 40.1433 86.6042 40.0883 86.659C40.0333 86.7138 39.9896 86.779 39.9598 86.8507C39.9299 86.9223 39.9145 86.9992 39.9144 87.0768L39.9027 93.7059C39.9026 93.7836 39.9178 93.8605 39.9474 93.9323C39.977 94.0041 40.0204 94.0693 40.0752 94.1243C40.13 94.1793 40.1951 94.223 40.2668 94.2529C40.3385 94.2827 40.4154 94.2982 40.493 94.2983L40.5256 94.2984C40.6032 94.2985 40.6801 94.2833 40.7519 94.2537C40.8237 94.2241 40.889 94.1807 40.944 94.1258C40.999 94.071 41.0427 94.006 41.0725 93.9343C41.1023 93.8626 41.1178 93.7857 41.1179 93.7081L41.1295 87.0789Z" stroke="#948E66" stroke-width="1.08497"/>
<path d="M28.2028 87.087C28.2033 87.0193 28.1904 86.9522 28.1649 86.8895C28.1395 86.8268 28.1019 86.7697 28.0544 86.7215C28.0069 86.6733 27.9503 86.635 27.888 86.6087C27.8256 86.5823 27.7587 86.5686 27.691 86.5681L27.6585 86.5679C27.5218 86.5669 27.3903 86.6203 27.293 86.7162C27.1957 86.8122 27.1405 86.9429 27.1395 87.0796L27.0941 93.5892C27.0936 93.6569 27.1064 93.724 27.1319 93.7867C27.1574 93.8494 27.1949 93.9065 27.2425 93.9547C27.29 94.0028 27.3466 94.0412 27.4089 94.0676C27.4713 94.0939 27.5382 94.1077 27.6059 94.1082L27.6384 94.1084C27.7751 94.1093 27.9065 94.056 28.0038 93.96C28.1012 93.8641 28.1564 93.7333 28.1573 93.5967L28.2028 87.087Z" stroke="#948E66" stroke-width="1.08497"/>
<path d="M31.4181 87.194C31.4177 87.1157 31.4019 87.0381 31.3715 86.9659C31.3412 86.8936 31.2969 86.828 31.2411 86.7729C31.1854 86.7178 31.1194 86.6742 31.0469 86.6446C30.9743 86.615 30.8966 86.5999 30.8183 86.6004L30.764 86.6007C30.6058 86.6015 30.4543 86.6652 30.343 86.7777C30.2317 86.8902 30.1696 87.0423 30.1704 87.2005L30.2041 93.6234C30.2045 93.7018 30.2203 93.7793 30.2507 93.8516C30.281 93.9238 30.3253 93.9893 30.381 94.0445C30.4367 94.0996 30.5028 94.1433 30.5753 94.1729C30.6479 94.2025 30.7256 94.2175 30.8039 94.217L30.8582 94.2167C31.0164 94.2159 31.1679 94.1523 31.2792 94.0398C31.3905 93.9273 31.4526 93.7752 31.4518 93.6169L31.4181 87.194Z" stroke="#948E66" stroke-width="1.08497"/>
<path d="M44.4208 87.1056C44.4198 86.9675 44.364 86.8354 44.2657 86.7384C44.1674 86.6414 44.0345 86.5874 43.8964 86.5884L43.6035 86.5904C43.4654 86.5914 43.3333 86.6472 43.2363 86.7455C43.1393 86.8439 43.0854 86.9767 43.0863 87.1148L43.1322 93.6788C43.1331 93.8169 43.1889 93.9489 43.2873 94.0459C43.3856 94.1429 43.5184 94.1968 43.6565 94.1959L43.9495 94.1938C44.0876 94.1929 44.2197 94.1371 44.3166 94.0387C44.4136 93.9404 44.4676 93.8075 44.4666 93.6694L44.4208 87.1056Z" stroke="#948E66" stroke-width="1.08497"/>
<path d="M69.0725 40.9338L70.6402 49.2555C71.2804 62.9152 63.0509 74.2803 50.3948 78.8751C50.2641 78.923 50.1513 79.0095 50.0717 79.1231C49.9921 79.2367 49.9496 79.3717 49.95 79.5098V85.4663C49.95 85.7122 49.8577 85.9147 49.6733 86.0739C49.1706 86.5079 48.5666 86.6778 47.8614 86.5838C47.6155 86.5512 47.4943 86.6598 47.4979 86.9093L47.5087 95.5999C47.5124 96.5546 47.0368 97.032 46.082 97.032L25.511 97.0429C25.3507 97.0436 25.1919 97.0127 25.0435 96.952C24.8951 96.8913 24.7602 96.802 24.6464 96.6892C24.5325 96.5764 24.442 96.4422 24.38 96.2944C24.318 96.1466 24.2857 95.988 24.285 95.8277L24.2145 87.0178C24.2131 86.8979 24.1639 86.7834 24.0775 86.6991C23.9912 86.6148 23.8747 86.5675 23.7534 86.5675C22.7118 86.5675 22.1621 86.0142 22.1042 84.9075C22.0102 83.0305 21.9849 81.1951 22.0283 79.4013C22.0315 79.2906 21.9996 79.1817 21.9372 79.0901C21.8749 78.9986 21.7853 78.929 21.6811 78.8914C7.66332 73.7649 -1.61314 60.078 1.65803 44.9753C3.92562 34.5216 11.7102 26.6556 21.7136 22.9342C21.8058 22.9007 21.8854 22.839 21.9416 22.7575C21.9979 22.676 22.0282 22.5786 22.0283 22.4785L22.05 16.8584C22.0536 15.7987 22.5852 15.2689 23.6449 15.2689L34.1799 15.2797C34.3238 15.2797 34.4618 15.2225 34.5635 15.1208C34.6653 15.0191 34.7224 14.8811 34.7224 14.7372L34.7061 2.35233C34.7065 2.02161 34.8283 1.70253 35.0482 1.45557C35.2682 1.2086 35.5711 1.0509 35.8996 1.01238C36.019 0.997917 36.1311 0.996136 36.236 1.00699C37.1546 1.08293 37.6138 1.58021 37.6138 2.49882L37.6084 14.8783C37.6084 15.1387 37.7404 15.2689 38.0045 15.2689L48.3767 15.2309C48.7346 15.2295 49.0785 15.3695 49.3335 15.6204C49.5886 15.8714 49.7341 16.213 49.7384 16.5708L49.8089 22.4894C49.8087 22.601 49.8428 22.7101 49.9068 22.8022C49.9708 22.8943 50.0615 22.965 50.1669 23.0047C58.9154 26.2705 65.2173 32.2468 69.0725 40.9338ZM38.6337 21.681L46.7601 21.7895C46.959 21.7932 47.0585 21.6955 47.0585 21.4966L47.0422 18.5021C47.0422 18.314 46.95 18.22 46.7655 18.22L39.2684 18.2634L25.0825 18.2146C24.8546 18.211 24.7425 18.3231 24.7461 18.5509L24.7733 21.6105C24.774 21.6539 24.7832 21.6969 24.8005 21.7368C24.8178 21.7766 24.8428 21.8127 24.874 21.8429C24.9052 21.8731 24.9421 21.8969 24.9826 21.9129C25.023 21.9289 25.0661 21.9367 25.1096 21.936L38.6337 21.681ZM33.67 77.2314C33.7354 77.2533 33.8062 77.2548 33.873 77.2354C33.9399 77.216 33.9996 77.1768 34.0443 77.1229C34.1419 77.0035 34.1636 76.8752 34.1094 76.7377C29.7442 65.9749 28.1602 55.0492 29.3573 43.9609C30.095 37.1147 31.3753 31.1257 34.1582 25.1583C34.2089 25.0498 34.2414 24.9522 34.2559 24.8654C34.2689 24.7967 34.2637 24.7258 34.2409 24.6598C34.2181 24.5937 34.1784 24.5347 34.1258 24.4886C34.0732 24.4426 34.0094 24.4111 33.9409 24.3973C33.8724 24.3834 33.8014 24.3877 33.7351 24.4097C18.5835 29.227 14.1677 48.2519 19.0934 61.7977C21.6757 68.888 26.5851 74.8444 33.67 77.2314ZM53.3947 53.4597C54.3115 42.5341 50.1127 28.3861 38.5252 24.5671C38.3118 24.4947 38.1184 24.4767 37.9448 24.5128C37.9071 24.5196 37.8716 24.535 37.8411 24.558C37.8105 24.5811 37.7858 24.611 37.7689 24.6453C37.752 24.6796 37.7434 24.7173 37.7438 24.7556C37.7442 24.7938 37.7536 24.8314 37.7712 24.8654C41.8398 32.9592 43.1146 42.3063 43.1526 51.4037C43.1852 58.0654 42.2792 64.6132 40.5541 70.434C40.0189 72.2423 39.2413 74.3291 38.2214 76.6943C37.9104 77.414 38.1184 77.6256 38.8453 77.329C48.2954 73.4665 52.5593 63.4577 53.3947 53.4597ZM14.9001 56.9371C13.41 48.496 14.6632 40.5884 18.6595 33.2142C20.5835 29.9846 22.9758 27.3879 25.8365 25.4242C26.6213 24.8853 26.5454 24.7081 25.6087 24.8925C19.3593 26.1077 13.2618 30.3771 9.51319 35.2757C-2.81747 51.4146 6.90384 71.7902 25.2127 76.8787C25.6322 76.9945 25.9685 77.0524 26.2217 77.0524C26.8365 77.0487 26.8889 76.8752 26.379 76.5316C25.9721 76.2549 25.4568 76.0054 25.0608 75.6419C19.5383 70.4775 16.1514 64.2425 14.9001 56.9371ZM51.7673 69.6529C50.9825 70.7342 50.1344 71.9277 49.223 73.2333C48.337 74.4991 46.9102 75.7468 44.9428 76.9764C44.7692 77.0849 44.762 77.2025 44.9211 77.329C45.0513 77.4339 45.2303 77.4484 45.4582 77.3724C47.6986 76.6184 50.1832 75.9186 52.1578 74.9638C58.0167 72.132 62.362 67.7306 65.1937 61.7597C67.4035 57.1016 68.0816 52.2337 67.2281 47.1561C66.0201 39.9917 62.5229 34.2739 56.7364 30.0028C56.0348 29.4856 54.6008 28.5742 52.4345 27.2686C51.4942 26.7044 50.4707 26.3934 49.364 26.3356C48.5358 25.5146 47.3406 25.0336 45.7782 24.8925C45.384 24.8564 45.3406 24.9612 45.648 25.2071C49.6624 28.3915 52.3857 32.3951 54.1596 37.3534C56.3151 43.3966 57.0275 49.5557 56.297 55.8304C55.7798 60.2498 54.2699 64.8573 51.7673 69.6529ZM33.9304 34.527C33.4476 38.1129 34.6627 40.9609 36.0298 44.2592C36.045 44.2989 36.071 44.3336 36.1049 44.3593C36.1387 44.385 36.1791 44.4007 36.2214 44.4047C36.2637 44.4086 36.3064 44.4006 36.3444 44.3816C36.3824 44.3626 36.4144 44.3334 36.4367 44.2972C38.6681 40.8398 39.1834 37.0677 37.9827 32.981C37.4439 31.1365 36.8815 29.4892 36.2956 28.039C36.1799 27.7496 36.0551 27.7442 35.9213 28.0227C34.8942 30.1456 34.2306 32.3137 33.9304 34.527ZM33.2197 52.9336C32.9268 52.9191 32.6519 52.8449 32.3952 52.7111C31.8961 52.4543 31.6483 52.6062 31.652 53.1668C31.6628 55.7562 31.8707 58.1739 32.2758 60.4198C32.453 61.389 32.6356 61.3908 32.8237 60.4252C33.0841 59.1016 33.5235 57.881 34.1419 56.7635C34.594 55.9533 34.8418 55.1595 34.8852 54.3819C35.0533 51.5339 35.3843 48.1162 34.104 45.6859C33.5073 44.5467 32.9684 43.3008 32.4874 41.9483C32.3282 41.4962 32.2035 41.507 32.1131 41.9808C31.5706 44.8125 31.4295 47.8975 31.6899 51.2356C31.708 51.4743 31.8364 51.5828 32.0751 51.5611C32.9322 51.4779 33.4096 51.8323 33.5072 52.6243C33.5129 52.6638 33.5096 52.7041 33.4976 52.7423C33.4856 52.7805 33.4651 52.8156 33.4376 52.8451C33.4101 52.8747 33.3764 52.8979 33.3387 52.9132C33.301 52.9285 33.2604 52.9354 33.2197 52.9336ZM38.3408 56.4054C39.0135 57.588 39.433 58.7363 39.5993 59.8502C39.7621 60.9677 39.9393 60.9713 40.131 59.861C40.442 58.0781 40.5378 56.0402 40.4185 53.7473C40.3805 52.9932 39.7567 52.5483 40.131 51.7292C40.3407 51.2771 40.4619 50.816 40.4944 50.3459C40.6572 48.1579 40.6011 45.8469 40.3263 43.4129C40.2069 42.375 39.9592 42.3442 39.5831 43.3207C39.1563 44.4382 38.6066 45.6136 37.9339 46.8468C37.5723 47.5123 37.4077 48.2573 37.4403 49.0819C37.5162 50.9155 37.5578 52.5737 37.565 54.0565C37.5686 54.7147 37.8272 55.4976 38.3408 56.4054ZM36.5126 74.0904C38.6229 68.747 39.3227 63.5174 36.5614 58.3041C36.5472 58.2768 36.5258 58.254 36.4995 58.238C36.4732 58.222 36.443 58.2136 36.4122 58.2136C36.3815 58.2136 36.3513 58.222 36.325 58.238C36.2987 58.254 36.2773 58.2768 36.2631 58.3041C33.9666 62.5174 33.4747 66.7108 34.7875 70.8843C35.1419 72.0018 35.5217 73.0706 35.9267 74.0904C36.1256 74.5823 36.3209 74.5823 36.5126 74.0904ZM37.7766 83.5622L46.809 83.611C47.073 83.611 47.205 83.479 47.205 83.215L47.1941 80.4049C47.1941 80.3605 47.1852 80.3166 47.1679 80.2757C47.1506 80.2349 47.1253 80.1979 47.0934 80.167C47.0615 80.1361 47.0237 80.112 46.9823 80.096C46.9409 80.08 46.8967 80.0725 46.8524 80.074L37.7169 80.3724C33.2866 80.4989 29.039 80.3796 24.974 80.0143C24.9456 80.0113 24.917 80.0144 24.8898 80.0233C24.8626 80.0323 24.8376 80.0469 24.8162 80.0663C24.7948 80.0857 24.7775 80.1093 24.7654 80.1359C24.7534 80.1624 24.7468 80.1912 24.7461 80.2204L24.7244 83.3669C24.7244 83.5586 24.8203 83.6544 25.012 83.6544L37.7766 83.5622ZM34.6638 87.0751C34.6642 87.0018 34.6501 86.929 34.6224 86.861C34.5947 86.7931 34.5539 86.7313 34.5022 86.6791C34.4506 86.627 34.3892 86.5855 34.3216 86.5571C34.254 86.5287 34.1814 86.5138 34.108 86.5134L34.0646 86.5132C33.9912 86.5129 33.9185 86.5269 33.8505 86.5546C33.7826 86.5824 33.7208 86.6232 33.6686 86.6748C33.6165 86.7264 33.575 86.7878 33.5465 86.8554C33.5181 86.9231 33.5033 86.9957 33.5029 87.069L33.4682 93.6981C33.4678 93.7715 33.4819 93.8442 33.5096 93.9121C33.5373 93.9801 33.5782 94.0419 33.6298 94.094C33.6814 94.1462 33.7428 94.1877 33.8104 94.2161C33.878 94.2445 33.9507 94.2594 34.024 94.2598L34.0674 94.26C34.1408 94.2604 34.2135 94.2463 34.2815 94.2186C34.3494 94.1909 34.4112 94.15 34.4634 94.0984C34.5155 94.0468 34.557 93.9854 34.5855 93.9178C34.6139 93.8501 34.6287 93.7775 34.6291 93.7041L34.6638 87.0751ZM37.9225 87.0916C37.9222 87.0147 37.9068 86.9385 37.8771 86.8675C37.8474 86.7966 37.804 86.7322 37.7494 86.6779C37.6948 86.6237 37.6301 86.5808 37.5589 86.5516C37.4877 86.5224 37.4115 86.5075 37.3345 86.5078L37.2911 86.508C37.1357 86.5085 36.987 86.5707 36.8775 86.681C36.768 86.7912 36.7068 86.9405 36.7073 87.0959L36.7302 93.6599C36.7305 93.7368 36.7459 93.8129 36.7756 93.8839C36.8053 93.9549 36.8487 94.0194 36.9033 94.0736C36.9579 94.1278 37.0226 94.1707 37.0938 94.1999C37.165 94.2291 37.2412 94.244 37.3181 94.2437L37.3615 94.2436C37.5169 94.243 37.6657 94.1808 37.7752 94.0705C37.8847 93.9603 37.9459 93.811 37.9454 93.6557L37.9225 87.0916ZM41.1295 87.0785C41.1297 87.0009 41.1145 86.924 41.0849 86.8522C41.0553 86.7804 41.0119 86.7151 40.9571 86.6601C40.9022 86.6051 40.8371 86.5614 40.7654 86.5316C40.6938 86.5018 40.6169 86.4864 40.5392 86.4862L40.5067 86.4862C40.429 86.486 40.3521 86.5012 40.2803 86.5308C40.2086 86.5604 40.1433 86.6038 40.0883 86.6586C40.0333 86.7134 39.9896 86.7786 39.9598 86.8502C39.9299 86.9219 39.9145 86.9987 39.9144 87.0764L39.9028 93.7055C39.9026 93.7832 39.9178 93.8601 39.9474 93.9319C39.977 94.0037 40.0204 94.0689 40.0752 94.1239C40.13 94.1789 40.1951 94.2226 40.2668 94.2524C40.3385 94.2823 40.4154 94.2977 40.493 94.2979L40.5256 94.2979C40.6032 94.2981 40.6801 94.2829 40.7519 94.2533C40.8237 94.2237 40.889 94.1802 40.944 94.1254C40.999 94.0706 41.0427 94.0055 41.0725 93.9339C41.1024 93.8622 41.1178 93.7853 41.1179 93.7076L41.1295 87.0785ZM28.2028 87.0867C28.2033 87.019 28.1904 86.9519 28.1649 86.8892C28.1394 86.8265 28.1019 86.7694 28.0544 86.7212C28.0069 86.673 27.9503 86.6347 27.8879 86.6083C27.8256 86.582 27.7587 86.5682 27.691 86.5677L27.6585 86.5675C27.5218 86.5666 27.3903 86.6199 27.293 86.7159C27.1957 86.8119 27.1405 86.9426 27.1395 87.0792L27.0941 93.5889C27.0936 93.6566 27.1064 93.7237 27.1319 93.7864C27.1574 93.8491 27.1949 93.9061 27.2425 93.9543C27.29 94.0025 27.3466 94.0409 27.4089 94.0672C27.4712 94.0936 27.5382 94.1074 27.6058 94.1078L27.6384 94.108C27.7751 94.109 27.9065 94.0557 28.0038 93.9597C28.1011 93.8637 28.1564 93.733 28.1573 93.5963L28.2028 87.0867ZM31.4181 87.1936C31.4177 87.1152 31.4019 87.0377 31.3715 86.9655C31.3412 86.8932 31.2969 86.8276 31.2412 86.7725C31.1854 86.7174 31.1194 86.6738 31.0469 86.6442C30.9743 86.6146 30.8966 86.5995 30.8183 86.5999L30.764 86.6003C30.6058 86.6011 30.4543 86.6648 30.343 86.7773C30.2317 86.8898 30.1696 87.0418 30.1704 87.2001L30.2041 93.623C30.2045 93.7014 30.2203 93.7789 30.2507 93.8511C30.281 93.9234 30.3253 93.9889 30.381 94.0441C30.4367 94.0992 30.5028 94.1428 30.5753 94.1725C30.6479 94.2021 30.7256 94.217 30.8039 94.2166L30.8582 94.2163C31.0164 94.2155 31.1679 94.1518 31.2792 94.0394C31.3905 93.9269 31.4526 93.7748 31.4518 93.6165L31.4181 87.1936ZM44.4208 87.1055C44.4198 86.9674 44.364 86.8353 44.2657 86.7383C44.1674 86.6413 44.0345 86.5873 43.8964 86.5883L43.6035 86.5903C43.4653 86.5913 43.3333 86.6471 43.2363 86.7454C43.1393 86.8438 43.0854 86.9766 43.0863 87.1147L43.1322 93.6786C43.1331 93.8168 43.1889 93.9488 43.2872 94.0458C43.3856 94.1428 43.5184 94.1967 43.6565 94.1958L43.9495 94.1937C44.0876 94.1928 44.2196 94.137 44.3166 94.0386C44.4136 93.9403 44.4676 93.8074 44.4666 93.6693L44.4208 87.1055Z" fill="#2A3344"/>
<path d="M39.2684 18.264C38.6644 19.2694 38.4529 20.4086 38.6337 21.6816L25.1096 21.9366C25.0661 21.9373 25.023 21.9295 24.9825 21.9135C24.9421 21.8975 24.9052 21.8737 24.874 21.8435C24.8427 21.8133 24.8178 21.7772 24.8005 21.7373C24.7832 21.6975 24.7739 21.6545 24.7732 21.6111L24.7461 18.5515C24.7425 18.3237 24.8546 18.2116 25.0825 18.2152L39.2684 18.264Z" fill="#FEE888"/>
<path d="M39.2684 18.2634L46.7655 18.22C46.95 18.22 47.0422 18.314 47.0422 18.5021L47.0585 21.4966C47.0585 21.6955 46.959 21.7932 46.7601 21.7896L38.6337 21.681C38.4529 20.408 38.6644 19.2688 39.2684 18.2634Z" fill="#FFB400"/>
<path d="M33.67 77.2317C26.5852 74.8448 21.6757 68.8883 19.0935 61.7981C14.1677 48.2522 18.5835 29.2273 33.7351 24.41C33.8014 24.388 33.8724 24.3838 33.9409 24.3976C34.0095 24.4114 34.0732 24.4429 34.1258 24.489C34.1784 24.535 34.2181 24.594 34.2409 24.6601C34.2637 24.7262 34.2689 24.797 34.2559 24.8657C34.2414 24.9525 34.2089 25.0502 34.1582 25.1587C31.3753 31.126 30.095 37.115 29.3573 43.9612C28.1602 55.0496 29.7442 65.9752 34.1094 76.7381C34.1637 76.8755 34.142 77.0039 34.0443 77.1232C33.9996 77.1772 33.9399 77.2164 33.8731 77.2357C33.8062 77.2551 33.7354 77.2537 33.67 77.2317Z" fill="#FB484F"/>
<path d="M53.3947 53.4599C52.5593 63.4579 48.2954 73.4667 38.8453 77.3292C38.1184 77.6257 37.9104 77.4141 38.2214 76.6945C39.2413 74.3292 40.0189 72.2424 40.5541 70.4342C42.2792 64.6133 43.1852 58.0656 43.1526 51.4039C43.1147 42.3064 41.8398 32.9594 37.7712 24.8655C37.7536 24.8316 37.7442 24.794 37.7438 24.7557C37.7434 24.7175 37.752 24.6797 37.7689 24.6454C37.7858 24.6111 37.8105 24.5812 37.8411 24.5582C37.8716 24.5352 37.9071 24.5197 37.9448 24.513C38.1184 24.4768 38.3119 24.4949 38.5252 24.5672C50.1127 28.3863 54.3115 42.5343 53.3947 53.4599Z" fill="#FB484F"/>
<path d="M18.6594 33.2145C17.7698 33.3266 16.8258 33.8818 15.8277 34.88C11.4987 39.1945 9.27445 44.3228 9.1551 50.2648C9.10808 52.7024 9.62887 55.2249 10.7175 57.8324C10.7898 58.0024 10.9182 58.0856 11.1026 58.082C12.7807 58.0675 14.0465 57.686 14.9 56.9374C16.1513 64.2428 19.5382 70.4778 25.0607 75.6422C25.4567 76.0057 25.9721 76.2552 26.379 76.5319C26.8889 76.8755 26.8365 77.049 26.2217 77.0526C25.9685 77.0526 25.6322 76.9947 25.2126 76.879C6.90381 71.7905 -2.8175 51.4149 9.51316 35.276C13.2617 30.3773 19.3592 26.108 25.6086 24.8928C26.5453 24.7084 26.6213 24.8856 25.8365 25.4244C22.9758 27.3882 20.5834 29.9849 18.6594 33.2145Z" fill="#FB484F"/>
<path d="M49.3641 26.336C56.0475 32.9543 59.3891 40.7642 59.3891 49.7658C59.3891 53.1997 58.7165 57.0568 57.6858 60.3063C56.5683 63.8505 54.5954 66.9662 51.7673 69.6533C54.2699 64.8577 55.7798 60.2502 56.297 55.8308C57.0276 49.5561 56.3151 43.397 54.1597 37.3538C52.3857 32.3955 49.6624 28.3919 45.648 25.2076C45.3406 24.9616 45.384 24.8568 45.7782 24.8929C47.3406 25.034 48.5359 25.515 49.3641 26.336Z" fill="#FB484F"/>
<path d="M49.364 26.3359C50.4707 26.3938 51.4942 26.7048 52.4345 27.269C54.6008 28.5746 56.0348 29.486 56.7364 30.0031C62.5229 34.2743 66.0201 39.9921 67.228 47.1565C68.0815 52.2341 67.4034 57.102 65.1937 61.7601C62.362 67.731 58.0166 72.1324 52.1578 74.9642C50.1832 75.919 47.6986 76.6187 45.4582 77.3728C45.2303 77.4487 45.0513 77.4343 44.9211 77.3294C44.762 77.2028 44.7692 77.0853 44.9428 76.9768C46.9102 75.7472 48.3369 74.4994 49.223 73.2336C50.1344 71.9281 50.9825 70.7346 51.7673 69.6533C54.5954 66.9662 56.5683 63.8505 57.6858 60.3063C58.7165 57.0568 59.3891 53.1997 59.3891 49.7658C59.3891 40.7642 56.0474 32.9542 49.364 26.3359Z" fill="#CB0F32"/>
<path d="M36.0298 44.2592C34.6628 40.9609 33.4476 38.1129 33.9304 34.5271C34.2306 32.3138 34.8942 30.1456 35.9213 28.0227C36.0551 27.7443 36.1799 27.7497 36.2956 28.039C36.8815 29.4893 37.4439 31.1366 37.9828 32.981C39.1834 37.0678 38.6681 40.8398 36.4367 44.2972C36.4144 44.3335 36.3824 44.3627 36.3444 44.3817C36.3064 44.4007 36.2638 44.4087 36.2214 44.4047C36.1791 44.4008 36.1387 44.3851 36.1049 44.3594C36.071 44.3337 36.045 44.2989 36.0298 44.2592Z" fill="#FFA31A"/>
<path d="M18.6595 33.2146C14.6632 40.5888 13.41 48.4964 14.9001 56.9375C14.0466 57.6861 12.7808 58.0676 11.1027 58.0821C10.9182 58.0857 10.7898 58.0025 10.7175 57.8325C9.62891 55.225 9.10813 52.7025 9.15514 50.2649C9.27449 44.3229 11.4987 39.1946 15.8277 34.8801C16.8259 33.8819 17.7698 33.3267 18.6595 33.2146Z" fill="#FF9D9D"/>
<path d="M69.0725 40.9338C70.313 43.6101 70.8356 46.384 70.6403 49.2555L69.0725 40.9338Z" fill="#CB0F32"/>
<path d="M33.5073 52.6246C33.4096 51.8326 32.9322 51.4782 32.0751 51.5614C31.8364 51.5831 31.708 51.4746 31.6899 51.2359C31.4296 47.8978 31.5706 44.8128 32.1131 41.9811C32.2035 41.5073 32.3283 41.4965 32.4874 41.9486C32.9684 43.3011 33.5073 44.547 34.104 45.6862C35.3843 48.1165 35.0534 51.5342 34.8852 54.3822C34.8418 55.1598 34.594 55.9536 34.1419 56.7638C33.5235 57.8813 33.0841 59.1019 32.8237 60.4255C32.6357 61.3911 32.453 61.3893 32.2758 60.4201C31.8707 58.1742 31.6628 55.7565 31.652 53.1671C31.6484 52.6065 31.8961 52.4546 32.3952 52.7114C32.6519 52.8452 32.9268 52.9194 33.2198 52.9339C33.2604 52.9357 33.3011 52.9288 33.3387 52.9135C33.3764 52.8982 33.4102 52.875 33.4376 52.8454C33.4651 52.8159 33.4856 52.7808 33.4976 52.7426C33.5097 52.7044 33.5129 52.6641 33.5073 52.6246Z" fill="#FB484F"/>
<path d="M38.3408 56.4058C37.8272 55.498 37.5686 54.7151 37.565 54.0569C37.5577 52.5741 37.5162 50.9158 37.4402 49.0822C37.4077 48.2577 37.5722 47.5127 37.9339 46.8472C38.6066 45.614 39.1563 44.4386 39.583 43.3211C39.9592 42.3446 40.2069 42.3754 40.3262 43.4133C40.6011 45.8473 40.6572 48.1583 40.4944 50.3463C40.4619 50.8164 40.3407 51.2775 40.131 51.7296C39.7566 52.5487 40.3805 52.9936 40.4184 53.7477C40.5378 56.0406 40.442 58.0784 40.131 59.8614C39.9393 60.9717 39.762 60.9681 39.5993 59.8506C39.4329 58.7367 39.0134 57.5884 38.3408 56.4058Z" fill="#FB484F"/>
<path d="M36.5614 58.3044C39.3227 63.5177 38.6229 68.7473 36.5126 74.0907C36.321 74.5826 36.1257 74.5826 35.9267 74.0907C35.5217 73.0709 35.1419 72.0021 34.7875 70.8846C33.4747 66.7111 33.9666 62.5177 36.2631 58.3044C36.2773 58.2771 36.2987 58.2543 36.325 58.2383C36.3513 58.2223 36.3815 58.2139 36.4122 58.2139C36.443 58.2139 36.4732 58.2223 36.4995 58.2383C36.5258 58.2543 36.5472 58.2771 36.5614 58.3044Z" fill="#FFA31A"/>
<path d="M37.7169 80.3728L37.7766 83.5627L25.012 83.6549C24.8203 83.6549 24.7244 83.559 24.7244 83.3674L24.7461 80.2209C24.7468 80.1917 24.7534 80.1629 24.7654 80.1364C24.7775 80.1098 24.7948 80.0861 24.8162 80.0668C24.8376 80.0474 24.8627 80.0327 24.8898 80.0238C24.917 80.0148 24.9456 80.0118 24.974 80.0148C29.039 80.3801 33.2866 80.4994 37.7169 80.3728Z" fill="#FEE888"/>
<path d="M37.7766 83.5624L37.7169 80.3725L46.8523 80.0742C46.8967 80.0727 46.9409 80.0802 46.9823 80.0962C47.0237 80.1122 47.0615 80.1363 47.0933 80.1672C47.1252 80.1981 47.1506 80.2351 47.1679 80.2759C47.1852 80.3168 47.1941 80.3607 47.1941 80.4051L47.2049 83.2152C47.2049 83.4792 47.0729 83.6112 46.8089 83.6112L37.7766 83.5624Z" fill="#FFB400"/>
<path d="M34.108 86.5139L34.0646 86.5137C33.756 86.5121 33.5045 86.7609 33.5029 87.0695L33.4682 93.6986C33.4666 94.0071 33.7155 94.2586 34.024 94.2602L34.0674 94.2605C34.376 94.2621 34.6275 94.0132 34.6291 93.7046L34.6638 87.0756C34.6654 86.767 34.4166 86.5155 34.108 86.5139Z" fill="#FEE888"/>
<path d="M37.3345 86.5081L37.2911 86.5082C36.9676 86.5093 36.7062 86.7726 36.7073 87.0961L36.7302 93.6601C36.7313 93.9837 36.9946 94.2451 37.3181 94.244L37.3615 94.2438C37.6851 94.2427 37.9465 93.9795 37.9454 93.6559L37.9225 87.0919C37.9213 86.7683 37.6581 86.5069 37.3345 86.5081Z" fill="#FEE888"/>
<path d="M40.5392 86.4864L40.5067 86.4864C40.1801 86.4858 39.9149 86.7501 39.9143 87.0767L39.9028 93.7058C39.9022 94.0324 40.1665 94.2976 40.493 94.2981L40.5256 94.2982C40.8522 94.2988 41.1174 94.0345 41.1179 93.7079L41.1295 87.0788C41.1301 86.7522 40.8658 86.487 40.5392 86.4864Z" fill="#FEE888"/>
<path d="M27.691 86.568L27.6585 86.5678C27.3739 86.5658 27.1415 86.7949 27.1395 87.0796L27.0941 93.5892C27.0921 93.8738 27.3212 94.1062 27.6058 94.1081L27.6384 94.1084C27.923 94.1104 28.1553 93.8812 28.1573 93.5966L28.2028 87.087C28.2048 86.8024 27.9756 86.57 27.691 86.568Z" fill="#FEE888"/>
<path d="M30.8183 86.6004L30.764 86.6006C30.4345 86.6024 30.1687 86.8709 30.1704 87.2005L30.2041 93.6234C30.2058 93.953 30.4743 94.2187 30.8039 94.217L30.8581 94.2167C31.1877 94.215 31.4535 93.9464 31.4517 93.6169L31.4181 87.194C31.4164 86.8644 31.1478 86.5986 30.8183 86.6004Z" fill="#FEE888"/>
<path d="M43.8964 86.5888L43.6034 86.5908C43.3158 86.5929 43.0843 86.8276 43.0863 87.1153L43.1321 93.6791C43.1341 93.9668 43.3689 94.1983 43.6565 94.1963L43.9495 94.1942C44.2371 94.1922 44.4686 93.9574 44.4666 93.6698L44.4208 87.1059C44.4188 86.8183 44.184 86.5868 43.8964 86.5888Z" fill="#FEE888"/>
</svg>
